<?xml version="1.0" encoding="utf-8"?>
<!-- Generator: Adobe Illustrator 17.1.0, SVG Export Plug-In . SVG Version: 6.00 Build 0)  -->
<!DOCTYPE svg PUBLIC "-//W3C//DTD SVG 1.1//EN" "http://www.w3.org/Graphics/SVG/1.1/DTD/svg11.dtd">
<svg version="1.1" id="Layer_1" xmlns="http://www.w3.org/2000/svg" xmlns:xlink="http://www.w3.org/1999/xlink" x="0px" y="0px"
	 viewBox="0 0 300 200" enable-background="new 0 0 300 200" xml:space="preserve">
<g>
	<g>
		<path fill="#DADFE1" d="M111.2,53.5c0.5,12.4-1.5,28.4-5.9,48.1c-4.5,20.1-6.7,31.8-6.6,35.2c0,0.7,0,1.4,0.1,1.9
			c-2.2,0.5-5.2,0.7-9,0.6c-4.6-0.1-7.6-0.1-9.1,0.1c-3.6,0.3-6.4,1.1-8.2,2.5c-0.1-2.3,1.8-13.3,5.8-33c4.1-20.3,6.2-33,6.1-38.3
			c0-2.2-0.3-3.4-0.8-3.8c-0.5-0.4-1-0.5-1.5-0.5c-2.7,0-7,3.6-12.9,10.7c0.1,20.8-2.1,39.1-6.8,54.8c-7.5,1.6-14.2,1.9-19.8,1
			c2.7-17.6,3.9-35.6,3.6-54.1c-0.1-6.3-0.6-10-1.4-11.2c-0.8-1.2-2.1-1.8-3.7-1.8c-3.8,0.1-7.7,2.9-11.6,8.4
			c-0.1,1.2,0.2,19.5,0.8,55c-7.1-0.8-13.7,0.5-19.5,3.9c-2.9-10.9-4.9-24.8-6-41.8c-0.4-6.9-1-21.2-1.7-42.8
			c7.2-1,16.8-2.7,28.7-4.9c-0.3,3.1-0.4,6.2-0.2,9.1c0.2,3.7,0.3,6.7,0.2,9.2C36.7,55,43.8,49.7,53,46c2.8-1.2,5.2-1.8,7.2-1.8
			c4.2-0.1,6.6,2.3,7.2,7c0.7,5,1.1,10,1.4,15.1c3.6-4,7.9-7.7,12.9-11c4.7-3.1,8.6-5,11.7-5.7c6.8-1.5,10.4-2.3,10.8-2.3
			C108.7,47.3,111,49.4,111.2,53.5z"/>
		<path fill="#DADFE1" d="M157.1,81.7c-0.1-7-0.4-11.9-0.8-14.7c-1-6.8-3.1-10.1-6.3-9.8c-5.2,0.5-9.5,10.1-13,29
			c5.5-3,10.9-4.5,16.1-4.6C154.3,81.5,155.7,81.6,157.1,81.7z M170.9,92.1c-1,0.1-2.8,0-5.4-0.1c-3.1-0.1-5.4-0.1-7.1-0.1
			c-8.8,0.1-16.4,2.4-22.8,6.8c0,1.2,0,2.2,0,3.3c0.1,10.3,2.9,15.4,8.1,15.5c3.7,0,6.2-1.3,7.4-3.7c0.9-2.7,1.9-5.4,2.8-8.2
			c4.6,4.9,9.5,8.9,14.6,12.1c-1.2,2.3-2.4,4.6-3.6,6.9c-2,3-4.6,5.5-7.7,7.3c-4.3,2.3-9.9,3.7-16.8,4.2
			c-7.7,0.5-14.1-3.2-19.2-11.2c-4.2-6.5-6.3-12.7-6.2-18.6c0-11.1,2.3-22.1,6.8-33.1c6.9-16.8,17.4-25.3,31.5-25.5
			c6.9-0.1,12,3.3,15.5,10.3c2.6,5.4,4,12.2,4.1,20.3C173.1,86.3,172.4,90.9,170.9,92.1z"/>
		<path fill="#DADFE1" d="M214.4,84.6c-4.6,1.2-8.6,3.7-12,7.6c-3.9,4.4-6,9.6-6.5,15.7c-0.2,3.3,0.7,5.9,2.9,7.9
			c1.8,1.6,4,2.5,6.4,2.6c3.6,0.1,6.4-3.5,8.4-10.9C213.8,98.4,214,90.7,214.4,84.6z M235.4,135.2c-7.7,0.1-14.7,1.2-21,3.1
			c-0.1-3.1-0.3-6.8-0.4-11c-7.6,6.3-13.5,9.4-17.6,9.5c-7.4,0.1-12.9-3-16.7-9.3c-2.6-4.3-3.9-8.8-3.9-13.5
			c-0.1-8.4,1.6-14.8,5.1-19.3c2.2-2.9,6.6-6.1,13.2-9.7c5.6-3,9.2-5.1,10.8-6.1c5-3.3,9-6.8,12-10.6c0.5-2.8,0.8-5.2,0.7-7.1
			c-0.1-4.2-1.4-6.4-4.1-6.5c-2.7-0.1-5.4,1.9-8.1,6c-2.4,3.7-4,7.7-4.7,12.1c-6.7-3-13.3-5.1-19.8-6.4c3-7.3,7.7-13,14.1-17
			c4.8-3,9.1-4.5,12.9-4.5c3.7-0.1,8.3,1.5,13.7,4.7c6.4,3.7,10.1,8,11.2,12.8c1.9,8.3,2.6,20.4,1.9,36.2
			C234.1,115.6,234.3,127.9,235.4,135.2z"/>
		<path fill="#DADFE1" d="M295.9,113c-0.6,11.4-3.8,20.6-9.8,27.8c-4.8,5.8-9.4,8.7-13.9,8.8c-4.7,0.1-9.3-2.1-13.7-6.5
			c-4.5-4.4-7.1-9.4-7.9-15.1c-0.4-2.7-0.6-6.2-0.7-10.5c-0.1-9.9,0.5-23.1,1.9-39.8c-3.7,1.3-6.9,2.4-9.9,3.3v-9.4
			c3.4-1.7,7.1-3.3,10.9-4.9c1.5-16.2,3-27.9,4.3-35.1c11.1-1.6,20.3-4,27.4-7.5c-2.6,7.6-5.8,19.2-9.5,34.9
			c6.4-1.8,12.1-2.9,16.9-3.4l0.1,7.1c-1.7,0.6-8.3,3.1-19.7,7.4c-5.1,23.1-7.6,39.3-7.5,48.6c0,2.1,0.2,3.8,0.5,5
			c1.1,4,2.9,6,5.4,5.9c2.6,0,4.4-1.4,5.3-4c0.6-1.6,0.9-4,1-7.3c0.1-3.7,0.3-6.1,0.5-7.3c1.5-0.3,3.2-0.5,4.9-0.5
			C288.1,110.4,292.5,111.3,295.9,113z"/>
		<path fill="#DADFE1" d="M56.3,149.4c-1.4,0.3-2.7,1-4.1,1.9c0-0.2,0-0.7,0.1-1.4c0.1-0.7,0.1-1.3,0.1-1.6c0-0.8-0.2-1.2-0.5-1.2
			c-0.1,0-0.2,0-0.3,0.1c-0.8,0.4-1.3,0.9-1.5,1.7c-0.3,1.1-0.7,2.3-1,3.4c-0.3,0.9-0.5,2.6-0.6,5.3v0.5c1.1-0.2,2.2-0.5,3.1-0.8
			v1.6c-1,0.5-2,0.9-3.1,1.2c0,1.4,0,3.1,0,5.2c0,2.6,0,3.9,0,4c-0.3,0-0.8,0.1-1.6,0.3c-0.8,0.2-1.5,0.5-2.1,0.8c0-5.7,0-8.8,0-9.3
			c-1,0.3-2,0.7-3,1.3v-1.6c0.9-0.8,1.9-1.4,3-1.8c0.1-6.6,0.5-10.4,1.2-11.4c0.3-0.5,1.1-1.1,2.3-1.9c1.2-0.8,2.2-1.2,2.8-1.3
			c0.2,0,0.6-0.1,1.2-0.2c0.6-0.1,1-0.2,1.3-0.2c0.5,0,0.9,0.1,1.2,0.4c0.4,0.4,0.7,1.1,0.9,2.1C56,147.3,56.1,148.4,56.3,149.4z"/>
		<path fill="#DADFE1" d="M62.6,158.7c0-2.8-0.2-4.2-0.7-4.2c0,0-0.1,0-0.1,0c-2.2,0.7-3.2,3.5-3.2,8.4c0,2.5,0.3,3.7,1,3.7
			c0.1,0,0.2,0,0.2-0.1c0.9-0.5,1.6-1.7,2.1-3.6C62.4,161.4,62.6,160,62.6,158.7z M66.5,159.3c0.1,2.6-0.7,5-2.2,7.3
			c-1.6,2.3-3.5,3.5-5.6,3.4c-1.6,0-2.7-1-3.5-2.9c-0.5-1.3-0.7-2.6-0.7-3.9c0-1.9,0.6-4.1,1.6-6.4c1.5-3.2,3.5-4.8,6.1-4.8
			c1.8,0,2.9,0.8,3.6,2.4C66.2,155.4,66.4,157,66.5,159.3z"/>
		<path fill="#DADFE1" d="M81.8,156.1c-0.1,0-0.2,0-0.3,0c-1.1,0-2.6,0.6-4.4,1.8c0.4-1,0.6-1.9,0.6-2.6c0-1-0.3-1.6-0.8-1.6
			c-0.9,0-1.7,0.9-2.4,2.8c0.1,1.3,0.3,3.4,0.7,6.2c0.3,2.4,0.5,4.5,0.6,6.1c-1.1-0.1-2.7,0.4-5,1.2c0.1-0.9,0.2-2,0.2-3.5
			c0-1.1,0-3-0.2-5.5c-0.1-2.6-0.2-4.4-0.2-5.6c0-1.4,0-2.5,0.1-3.4c0.9-0.7,2.1-1.2,3.7-1.3c-0.1,0.8-0.1,1.6-0.1,2.4
			c1.9-1.6,3.6-2.5,5-2.5c0.2,0,0.3,0,0.4,0c0.6,0.1,1.1,0.8,1.3,2.1C81.3,154,81.5,155.1,81.8,156.1z"/>
		<path fill="#DADFE1" d="M103.6,154.4c-1.3,0.8-2.2,1.6-2.8,2.4c0-0.3-0.3-0.8-0.7-1.4c-0.5-0.6-1-0.9-1.4-0.9c-1.2,0-2.1,1-2.7,3
			c-0.4,1.4-0.7,3-0.7,4.6c0,2.8,0.8,4.2,2.3,4.4c0.7,0.1,1.3-0.3,1.9-1.2c0.5-0.7,0.8-1.5,1-2.4c0.5,1.3,1.3,2.4,2.5,3.4
			c-0.5,1.1-1.3,2-2.3,2.7c-1.1,0.8-2.2,1.2-3.3,1.2c-2,0-3.6-1-4.9-2.9c-1-1.6-1.5-3.3-1.5-5c0-2.3,0.6-4.6,1.9-7.1
			c1.5-2.9,3.3-4.4,5.4-4.4C100.2,150.8,102,152,103.6,154.4z"/>
		<path fill="#DADFE1" d="M114.4,158.7c-1,0.2-1.8,0.7-2.5,1.5c-0.8,0.9-1.3,2-1.4,3.2c-0.1,0.7,0.1,1.2,0.6,1.6
			c0.4,0.3,0.8,0.5,1.3,0.6c0.7,0,1.3-0.7,1.8-2.2C114.3,161.6,114.3,160,114.4,158.7z M118.7,169.4c-1.6,0-3.1,0.2-4.4,0.6
			c0-0.7,0-1.4,0-2.3c-1.6,1.3-2.8,2-3.7,2c-1.5,0-2.7-0.7-3.5-2c-0.5-0.9-0.8-1.9-0.8-2.9c0-1.8,0.4-3.1,1.1-4
			c0.5-0.6,1.4-1.3,2.8-2c1.2-0.6,1.9-1,2.3-1.3c1.1-0.7,1.9-1.4,2.5-2.2c0.1-0.6,0.2-1.1,0.2-1.5c0-0.9-0.3-1.4-0.8-1.4
			c-0.6,0-1.1,0.4-1.7,1.2c-0.5,0.8-0.9,1.6-1,2.5c-1.4-0.6-2.8-1.1-4.1-1.4c0.7-1.5,1.7-2.7,3-3.5c1-0.6,1.9-0.9,2.7-0.9
			c0.8,0,1.7,0.3,2.9,1c1.3,0.8,2.1,1.7,2.3,2.7c0.4,1.7,0.5,4.3,0.3,7.6C118.5,165.2,118.5,167.8,118.7,169.4z"/>
		<path fill="#DADFE1" d="M134.4,164.6c-0.2,2.5-0.9,4.6-2.3,6.1c-1.1,1.3-2.1,1.9-3.1,1.9c-1,0-2-0.5-3-1.5c-1-1-1.5-2.1-1.7-3.4
			c-0.1-0.6-0.1-1.4-0.1-2.3c0-2.2,0.2-5.1,0.5-8.8c-0.8,0.3-1.5,0.5-2.2,0.7l0-2.1c0.8-0.4,1.6-0.7,2.4-1c0.4-3.6,0.8-6.2,1.1-7.8
			c2.5-0.3,4.5-0.8,6.1-1.6c-0.6,1.7-1.3,4.3-2.2,7.7c1.4-0.4,2.7-0.6,3.8-0.7v1.6c-0.4,0.1-1.8,0.7-4.4,1.6
			c-1.2,5.1-1.8,8.7-1.8,10.8c0,0.5,0,0.8,0.1,1.1c0.2,0.9,0.6,1.3,1.2,1.3c0.6,0,1-0.3,1.2-0.9c0.1-0.3,0.2-0.9,0.2-1.6
			c0-0.8,0.1-1.4,0.1-1.6c0.3-0.1,0.7-0.1,1.1-0.1C132.7,164,133.6,164.2,134.4,164.6z"/>
		<path fill="#DADFE1" d="M149.4,156.9c-1.1,0.3-2.4,0.7-3.7,1.1c0-0.1,0-0.3,0-0.5c0-0.9-0.1-1.6-0.3-2.3c-0.3-0.8-0.7-1.2-1.4-1.1
			c-0.6,0.1-0.9,0.9-0.9,2.4c0,0.4,0.4,1.2,1.2,2.4c1.2,1.8,1.9,2.9,2.2,3.4c0.8,1.4,1.1,2.5,1.1,3.4c-0.1,1.4-0.8,2.7-2.2,3.8
			c-1.1,0.9-2.1,1.4-2.9,1.4c-2.2,0-3.8-1.7-4.9-5c-0.1-0.5,1-1.3,3.3-2.4c0.5,1.9,1.3,2.9,2.3,3c0.4,0,0.6,0,0.7-0.2
			c0-0.1,0-0.4,0-0.8c0-0.4-0.4-1.1-1.2-2.1c-1.1-1.4-1.8-2.4-2.1-3c-0.7-1.3-1.1-2.4-1.1-3.4c0-1.5,0.6-2.8,2-3.9
			c1.3-1.1,2.6-1.6,4.1-1.6c0.8,0,1.6,0.6,2.5,1.8C148.9,154.4,149.3,155.6,149.4,156.9z"/>
		<path fill="#DADFE1" d="M171.5,159.4c-1,1.8-2.7,3-5,3.4c-0.2,0.3-0.4,0.7-0.4,1c0,0.7,0.5,1.4,1.5,2.2c-0.3,1-1,1.6-2.1,1.8
			c-1.2-1.7-1.9-3-1.9-3.9c0-0.3,0.1-0.6,0.3-0.9c-1.1-0.1-1.9-0.4-2.5-1.1c-0.6-0.6-0.8-1.4-0.8-2.4c0-1.5,0.2-2.5,0.6-3.2
			c0.3-0.6,1-1.2,2.1-1.9c-1.2-0.7-1.9-1.5-1.8-2.5c0.1-1.9,1.5-3.2,4.2-3.8c-0.3-0.5-0.4-1.2-0.4-2c0-0.5,0.1-0.9,0.2-1.3
			c0.7,0.4,1.5,0.6,2.6,0.6c-0.3,0.3-0.4,0.7-0.4,1.2c0,0.6,0.2,1,0.6,1.4c0.7,0.2,1.3,0.6,1.8,1.1c0.6,0.6,0.9,1.2,0.8,1.9
			c-1.4-0.1-2.6,0-3.5,0.5c-0.1-0.4-0.2-0.8-0.5-1c-0.3-0.3-0.5-0.4-0.9-0.4c-1.2,0-1.9,0.5-1.9,1.3c0,0.2,0,0.4,0.1,0.7
			c0.1,0.4,0.6,0.7,1.4,1c1,0.4,1.6,0.6,1.7,0.8c0.2,0.7,0.2,1.2,0.2,1.5c-0.2,0-0.3,0-0.5,0c-1.1,0-1.8,0.3-2.3,0.9
			c-0.4,0.5-0.6,1.3-0.6,2.5c0,0.3,0.1,0.7,0.4,1.2c0.3,0.6,0.6,0.8,1,0.8c1.2,0,2-0.7,2.4-2.2c0.6,0,1.2,0.1,1.8,0.1
			C170.6,158.6,171.2,158.9,171.5,159.4z"/>
		<path fill="#DADFE1" d="M188.5,156.9c-0.7-1.2-1.3-1.7-1.9-1.7c-0.3,0-0.6,0.1-0.9,0.4c-0.3,0.2-0.5,1.1-0.8,2.6
			c-0.3,1.6-0.5,3.1-0.5,4.5c0,2.4,0.5,3.5,1.4,3.5c0.5,0,1.4-1,2.5-2.9c-0.1-0.1-0.1-0.4-0.1-0.8c0-0.4,0-1.2,0.2-2.4
			c0.1-1.2,0.2-2,0.2-2.4C188.6,157.3,188.6,157,188.5,156.9z M196.8,144c-1,1.8-1.9,4.8-2.7,9c-0.8,4.4-1.2,8.9-1.2,13.4
			c0,1.2,0,2.3,0.1,3.4c-0.4,0.1-1.1,0.2-2.2,0.2c-1.1,0-1.8,0-2.2-0.1c0.2-0.4,0.4-1.7,0.6-4c-1.4,2.7-2.9,4-4.4,3.9
			c-2.7-0.2-4-2.7-4-7.8c0-0.7,0-1.5,0.1-2.5c0.1-1.9,0.5-3.6,1.2-5.1c0.9-2,2.1-2.9,3.7-2.8c1.6,0.1,2.9,1.5,4.1,4.1
			c0.1-1.1,0.4-2.9,0.8-5.2c0.3-1.8,0.5-3.2,0.5-4.2c0-0.8-0.1-1.7-0.3-2.5C192.7,144.2,194.6,144.2,196.8,144z"/>
		<path fill="#DADFE1" d="M205.3,158.7c0-2.8-0.2-4.2-0.7-4.2c0,0-0.1,0-0.1,0c-2.2,0.7-3.2,3.5-3.2,8.4c0,2.5,0.3,3.7,1,3.7
			c0.1,0,0.2,0,0.2-0.1c0.9-0.5,1.6-1.7,2.1-3.6C205.1,161.4,205.3,160,205.3,158.7z M209.2,159.3c0.1,2.6-0.6,5-2.2,7.3
			c-1.6,2.3-3.5,3.5-5.6,3.4c-1.6,0-2.7-1-3.5-2.9c-0.5-1.3-0.7-2.6-0.7-3.9c0-1.9,0.6-4.1,1.6-6.4c1.5-3.2,3.5-4.8,6.1-4.8
			c1.8,0,2.9,0.8,3.6,2.4C208.9,155.4,209.1,157,209.2,159.3z"/>
		<path fill="#DADFE1" d="M220.9,154.2c-0.5,0-1.2,0.5-2.1,1.4c-0.9,0.9-1.4,1.7-1.5,2.2c-0.1,0.4-0.1,0.9-0.1,1.4
			c0,1.3,0.2,2,0.6,2c0.1,0,0.2-0.1,0.3-0.2c2.3-2.6,3.4-4.5,3.4-5.7C221.5,154.6,221.3,154.2,220.9,154.2z M220.9,171
			c0.3-0.7,0.4-1.4,0.4-1.9c0-0.5-0.1-1-0.4-1.5c-0.1-0.3-0.3-0.4-0.6-0.5c-0.2,0-0.4-0.1-0.8,0c-0.5,0.1-0.8,0.1-0.8,0.1
			c-0.9,0-1.8,0.6-2.6,1.9c-0.8,1.2-1.2,2.4-1.2,3.4c0,1,0.4,1.4,1.2,1.4c0.1,0,0.3,0,0.4,0c1.1-0.2,1.9-0.4,2.4-0.6
			C219.8,172.8,220.5,172,220.9,171z M229.7,152.4c-0.9,0.5-1.7,1.3-2.4,2.5c-0.1-0.4-0.3-0.8-0.4-1.2c-0.1-0.4-0.3-0.7-0.6-1
			c-0.5,0.1-0.9,0.5-1.3,1.1c0.7,0.6,1,1.2,1,1.8c0,0.1,0,0.2,0,0.3c-0.2,1-0.4,1.7-0.6,2.1c-0.3,0.6-0.9,1.3-1.7,1.9
			c0.1,0.5,0.3,0.9,0.7,1.3c0.4,0.4,0.6,0.7,0.6,1c0,0.2-0.1,0.5-0.5,0.8c-0.5,0.5-0.9,1-1,1.6c0.8,0.2,1.6,0.7,2.4,1.5
			c0.8,0.8,1.1,1.6,1.1,2.4c0,0.8-0.3,1.6-0.9,2.5c-0.6,0.9-1.4,1.6-2.3,2.2c-2.3,1.4-4.6,2.1-6.8,2.1c-0.4,0-0.8,0-1.2-0.1
			c-3.4-0.4-5.4-1.6-5.7-3.7c0-0.2-0.1-0.4-0.1-0.6c0-1.8,1.1-3.3,3.5-4.4c2.4-1.2,5.1-1.8,7.9-1.8c0.1-0.2,0.3-0.6,0.7-1.2
			c0.3-0.4,0.4-0.7,0.4-0.9c0-0.4-0.4-0.7-1.1-1c-1.2,0.7-2.5,1.1-4.1,1.1c-1.4,0-2.4-0.2-3-0.7c-0.7-0.5-1.1-1.4-1.1-2.6
			c0-1.6,1.1-3.3,3.2-5c1.9-1.5,3.6-2.3,5-2.3c1,0,2.1,0.4,3.3,1.3c0.6-1,1.1-1.7,1.5-2.2c0.5-0.5,1-0.7,1.5-0.7c0.1,0,0.2,0,0.2,0
			C228.4,150.7,229,151.4,229.7,152.4z"/>
		<path fill="#DADFE1" d="M241.9,156.9c-1.2,0.3-2.4,0.7-3.7,1.1c0-0.1,0-0.3,0-0.5c0-0.9-0.1-1.6-0.3-2.3c-0.3-0.8-0.7-1.2-1.4-1.1
			c-0.6,0.1-0.9,0.9-0.9,2.4c0,0.4,0.4,1.2,1.2,2.4c1.2,1.8,1.9,2.9,2.2,3.4c0.8,1.4,1.1,2.5,1.1,3.4c-0.1,1.4-0.8,2.7-2.2,3.8
			c-1.1,0.9-2.1,1.4-2.9,1.4c-2.2,0-3.8-1.7-4.9-5c-0.1-0.5,1-1.3,3.3-2.4c0.5,1.9,1.3,2.9,2.3,3c0.4,0,0.6,0,0.7-0.2
			c0-0.1,0-0.4,0-0.8c0-0.4-0.4-1.1-1.2-2.1c-1.1-1.4-1.8-2.4-2.1-3c-0.7-1.3-1.1-2.4-1.1-3.4c0-1.5,0.6-2.8,2-3.9
			c1.3-1.1,2.6-1.6,4.1-1.6c0.8,0,1.6,0.6,2.5,1.8C241.4,154.4,241.9,155.6,241.9,156.9z"/>
	</g>
</g>
</svg>
