<?xml version="1.0" encoding="utf-8"?>
<!-- Generator: Adobe Illustrator 17.1.0, SVG Export Plug-In . SVG Version: 6.00 Build 0)  -->
<!DOCTYPE svg PUBLIC "-//W3C//DTD SVG 1.1//EN" "http://www.w3.org/Graphics/SVG/1.1/DTD/svg11.dtd">
<svg version="1.1" id="Layer_1" xmlns="http://www.w3.org/2000/svg" xmlns:xlink="http://www.w3.org/1999/xlink" x="0px" y="0px"
	 viewBox="0 0 292 175" enable-background="new 0 0 292 175" xml:space="preserve">
<g>
	<path fill="#DADFE1" d="M109.1,70.2c0.5,12.1-1.5,27.7-5.8,47c-4.4,19.6-6.5,31-6.4,34.4c0,0.7,0,1.4,0.1,1.9
		c-2.1,0.5-5.1,0.7-8.8,0.6c-4.5-0.1-7.4-0.1-8.9,0.1c-3.5,0.3-6.2,1.1-8,2.4c-0.1-2.2,1.8-13,5.7-32.2c4-19.8,6.1-32.2,6-37.4
		c0-2.1-0.3-3.3-0.8-3.7s-1-0.5-1.5-0.5c-2.6,0-6.8,3.5-12.6,10.4c0.1,20.3-2.1,38.2-6.6,53.5c-7.3,1.6-13.9,1.9-19.3,1
		c2.6-17.3,3.8-34.8,3.5-52.9c-0.1-6.2-0.6-9.8-1.4-10.9c-0.8-1.2-2.1-1.8-3.6-1.8c-3.7,0.1-7.5,2.8-11.3,8.2
		c-0.1,1.2,0.2,19,0.8,53.7c-6.9-0.8-13.4,0.5-19,3.8c-2.9-10.6-4.9-24.2-6-40.8c-0.4-6.7-1-20.7-1.7-41.8c7-1,16.4-2.6,28-4.8
		c-0.3,3-0.4,6.1-0.2,8.9c0.2,3.6,0.3,6.5,0.2,9c4.8-6.6,11.7-11.8,20.7-15.4c2.7-1.2,5.1-1.8,7-1.8c4.1-0.1,6.4,2.2,7,6.8
		c0.7,4.9,1.1,9.8,1.4,14.7c3.5-3.9,7.7-7.5,12.6-10.7c4.6-3,8.4-4.9,11.4-5.6c6.6-1.5,10.2-2.2,10.5-2.2
		C106.7,64.1,108.9,66.2,109.1,70.2z"/>
	<path fill="#DADFE1" d="M153.9,97.7c-0.1-6.8-0.4-11.6-0.8-14.4c-1-6.6-3-9.9-6.2-9.6c-5.1,0.5-9.3,9.9-12.7,28.3
		c5.4-2.9,10.6-4.4,15.7-4.5C151.2,97.5,152.6,97.6,153.9,97.7z M167.4,107.9c-1,0.1-2.7,0-5.3-0.1c-3-0.1-5.3-0.1-6.9-0.1
		c-8.6,0.1-16,2.3-22.3,6.6c0,1.2,0,2.1,0,3.2c0.1,10.1,2.8,15,7.9,15.1c3.6,0,6.1-1.3,7.2-3.6c0.9-2.6,1.9-5.3,2.7-8
		c4.5,4.8,9.3,8.7,14.3,11.8c-1.2,2.2-2.3,4.5-3.5,6.7c-2,2.9-4.5,5.4-7.5,7.1c-4.2,2.2-9.7,3.6-16.4,4.1
		c-7.5,0.5-13.8-3.1-18.7-10.9c-4.1-6.3-6.2-12.4-6.1-18.2c0-10.8,2.2-21.6,6.6-32.3c6.7-16.4,17-24.7,30.8-24.9
		c6.7-0.1,11.7,3.2,15.1,10.1c2.5,5.3,3.9,11.9,4,19.8C169.5,102.2,168.9,106.7,167.4,107.9z"/>
	<path fill="#DADFE1" d="M209.9,100.6c-4.5,1.2-8.4,3.6-11.7,7.4c-3.8,4.3-5.9,9.4-6.3,15.3c-0.2,3.2,0.7,5.8,2.8,7.7
		c1.8,1.6,3.9,2.4,6.2,2.5c3.5,0.1,6.2-3.4,8.2-10.6C209.3,114,209.5,106.5,209.9,100.6z M230.4,149.9c-7.5,0.1-14.4,1.2-20.5,3
		c-0.1-3-0.3-6.6-0.4-10.7c-7.4,6.2-13.2,9.2-17.2,9.3c-7.2,0.1-12.6-2.9-16.3-9.1c-2.5-4.2-3.8-8.6-3.8-13.2
		c-0.1-8.2,1.6-14.4,5-18.8c2.1-2.8,6.4-6,12.9-9.5c5.5-2.9,9-5,10.5-6c4.9-3.2,8.8-6.6,11.7-10.3c0.5-2.7,0.8-5.1,0.7-6.9
		c-0.1-4.1-1.4-6.2-4-6.3s-5.3,1.9-7.9,5.9c-2.3,3.6-3.9,7.5-4.6,11.8c-6.5-2.9-13-5-19.3-6.2c2.9-7.1,7.5-12.7,13.8-16.6
		c4.7-2.9,8.9-4.4,12.6-4.4c3.6-0.1,8.1,1.5,13.4,4.6c6.2,3.6,9.9,7.8,10.9,12.5c1.9,8.1,2.5,19.9,1.9,35.3
		C229.1,130.8,229.3,142.8,230.4,149.9z"/>
	<path fill="#DADFE1" d="M289.4,128.3c-0.6,11.1-3.7,20.1-9.6,27.1c-4.7,5.7-9.2,8.5-13.6,8.6c-4.6,0.1-9.1-2.1-13.4-6.3
		c-4.4-4.3-6.9-9.2-7.7-14.7c-0.4-2.6-0.6-6.1-0.7-10.3c-0.1-9.7,0.5-22.6,1.9-38.9c-3.6,1.3-6.7,2.3-9.7,3.2v-9.1
		c3.3-1.7,6.9-3.2,10.6-4.8c1.5-15.8,2.9-27.2,4.2-34.3c10.8-1.6,19.8-3.9,26.7-7.3c-2.5,7.4-5.7,18.7-9.3,34.1
		c6.2-1.8,11.8-2.8,16.5-3.3l0.1,6.9c-1.7,0.6-8.1,3-19.2,7.2c-5,22.6-7.4,38.4-7.3,47.4c0,2.1,0.2,3.7,0.5,4.9
		c1.1,3.9,2.8,5.9,5.3,5.8c2.5,0,4.3-1.4,5.2-3.9c0.6-1.6,0.9-3.9,1-7.1c0.1-3.6,0.3-6,0.5-7.1c1.5-0.3,3.1-0.5,4.8-0.5
		C281.8,125.7,286.1,126.6,289.4,128.3z"/>
</g>
</svg>
