<?xml version="1.0" encoding="utf-8"?>
<!-- Generator: Adobe Illustrator 17.1.0, SVG Export Plug-In . SVG Version: 6.00 Build 0)  -->
<!DOCTYPE svg PUBLIC "-//W3C//DTD SVG 1.1//EN" "http://www.w3.org/Graphics/SVG/1.1/DTD/svg11.dtd">
<svg version="1.1" id="Layer_1" xmlns="http://www.w3.org/2000/svg" xmlns:xlink="http://www.w3.org/1999/xlink" x="0px" y="0px"
	 viewBox="0 0 720 648" enable-background="new 0 0 720 648" xml:space="preserve">
<g>
	<g>
		<g>
			<path fill-rule="evenodd" clip-rule="evenodd" fill="#2E2A25" stroke="#DADFE1" stroke-width="5.932" d="M697.6,400.6
				c-2.1,12.1-5,23.3-7.7,35.8c-2.2,10-1,20.7-5.5,28.1c-1.8,2.9-4.8,5.9-7.7,9.4c-2.8,3.4-5,7.7-7.2,9.9
				c-6.6,6.9-15.1,10.9-20.4,18.2c-15.3,7.5-35.7,18.3-54.5,24.2c-8.3,2.6-21,3.4-31.9,5c-27.9,3.9-53.5-0.8-80.4-0.5
				c-16,0.2-32.2,0.5-48.5,0.5c-7.7,0-15.5-0.6-23.1-1.6c-7.9-1.1-15.9-0.8-23.1-2.2c-8-1.5-21.3-3.9-31.4-2.8
				c-5.2,0.6-11.1,2.3-16.5,3.3c-16,3-31,8.9-45.7,13.8c-19.8,6.5-38.2,15-55.6,22.6c-7.7,3.3-16.7,3.7-21.5,10.5
				c-4.1-2.2-7.1,2-10.5,3.3c-17.6,6.7-38,5.6-57.8,3.3c-9.7-1.1-19.3-4.4-29.2-5c-9.9-0.5-20,1.9-29.7,1.1c-4-0.3-8.8-2.1-13.8-3.3
				c-10.4-2.4-17.4-4.7-25.9-8.8c-4.4-2.2-9.4-4.3-12.1-6.1c-2.9-1.9-9.4-7.3-10.5-9.9c-1.6-4,0.5-14.9,0.6-20.9
				c0.1-9.4,1-18.5-1.1-29.7c-1.6-8.6-6.4-16.7-6.6-24.2c-0.3-11.9,10.4-19.2,9.9-31.9c6.1-7.8,13.5-15,20.9-22.6
				c2.5-2.5,5.4-4.5,7.2-7.2c1.5-2.3,1.8-5.3,3.3-7.7c1.9-3,6.8-6.6,11-9.9c10.1-8,19.6-13,31.9-20.4c6.3-3.7,11.9-9.2,18.2-12.7
				c5.7-3.1,12.5-6.7,19.3-11.6c5.6-4,13.7-11.9,18.7-12.1c5.1-0.2,11,4.4,17.1,5.5c5.8,1,10.6,0.5,16.5,0.5
				c3.3-10.7,0.4-28.5,2.8-39.6c17.9-9.6,34-20.1,48.5-31.9c8.1-1.6,16.5-7.7,27-8.8c3.5-0.4,7,0.5,10.5,0c3-0.5,5.2-2.8,8.3-3.3
				c6.1-1.1,13.4-0.5,16.5,3.9c5-0.1,9.9,0.9,14.9,1.7c4.7,0.7,8.9,2.8,13.2,3.3c7.1,0.9,14.3-0.4,20.9,0.6c6.9,1,14.1,3.6,19.3,7.2
				c4,2.7,6.6,7.2,10.5,10.5c17,14.4,38.7,22.6,66.1,25.3c7.2,0.7,14.6-0.3,22.6,1.1c19.5,3.5,31.8,18.8,51.2,27.5
				c5.4,2.4,11,3.7,16.5,6.6c4.7,2.5,9.7,6,14.9,8.3c18.8,8.2,42.4,11.3,63.9,18.7c6.9,2.4,14.3,5.5,20.9,6.6c6,1,12.4-0.7,18.7,0
				c2.6,0.3,5.8,2.3,9.4,2.8c6.7,0.8,12.1,0.2,16.5,2.8C691.2,391.3,694.9,395.5,697.6,400.6z M346.9,276.2
				c-9.4-6.9-24-5.3-35.8-9.4c-9.1,4.1-23.6,7.1-30.3,15.4c-6.8,2.6-15.3,5.8-22,11.6c-4.1,3.5-5.6,8.6-8.3,13.2
				c-3.6,6.3-9.3,10.8-8.8,17.1c0.6,7.7,7.8,11.2,12.7,16c13.2,4.6,31.3,1.3,44.6,6.1c5.4,5.5,12.1,6.8,21.5,9.4
				c5.6,1.6,12.4,2.9,17.6,3.3c10.8,0.8,21.4-2.5,31.9-1.7c12.7,1,24.1,3.5,35.8,3.3c8.7-0.1,16.6-2.4,25.9-3.3
				c16.3-1.7,25.6,4,38.5,8.3c8.8,2.9,18.2,4.6,27.5,6.6c9.3,2,19.7,3,29.7,5.5c10,2.5,20.3,5.6,30.3,6.1
				c15.2,0.8,27.7,0.4,41.3,2.2c4.9,0.6,10.9,3.8,15.4,4.4c2.2,0.3,8.4-2.3,9.9,2.2c-0.3,2.9-2.6,4-4.4,5.5c-14.4,1.5-26-2.9-38-3.9
				c-18.1-1.4-34.7-2.4-51.8-0.6c-10.9,1.2-22.4,0.5-30.8-1.1c-7.9-1.5-12.9-2.8-19.3-4.4c-11.6-2.9-24-8.1-35.8-9.4
				c-13.7-1.5-26.1,4.2-42.4,4.4c-6.1,0.1-12.3-2-18.7-2.2c-2.5-0.1-4.8,1.1-7.2,1.1c-3.7,0-7.1-1.8-11-1.7
				c-4.5,0.2-8.6,1.4-13.8,2.8c-3.6-2.2-7.2-1-11.6-1.7c-5.8-0.8-10.9-4.6-16.5-5c-2.6-0.2-5.1,1-7.7,1.1c-25.2,1-53.2-3.6-77.1-5.5
				c-3.9-0.3-8-0.7-11.6-0.6c-12.4,0.5-14.3,5-19.8,11.6c-7,8.3-15.5,12.4-22.6,19.8c3.2,0.3,5.7-3.1,8.8-1.1
				c-5,7.4-15.6,12.3-23.1,17.1c-2.4,1.5-6.5,2.9-6.1,5.5c15.4-5.3,28.5-13,38-24.2c-1.3-0.8-3.4-0.6-3.3-2.8
				c13.2-8.9,26.7-20.3,43.5-23.7c-8.3,5.7-20.4,7.5-28.1,13.8c-2.9,4.2-7.2,7.2-12.1,9.4c-0.6,2.5,2.4,1.2,1.7,3.9
				c-11.5,13.1-29.7,22.4-47.4,27.5c9.4-10.8,25.3-15.1,34.7-25.9c-3.5-0.6-6.4,4.1-8.8,1.1c8.5-9.8,24.1-15.5,28.1-28.1
				c-10.1,4-20.3,9.8-35.2,7.2c-15-12.4-31.2-0.9-43.5,5c-4,1.9-8.7,2.7-12.1,4.4c-4.3,2.1-7.7,4.8-12.1,6.6
				c-8.1,3.3-17.5,7.6-24.8,11c-8.8,4.1-17.9,8.2-21.5,16c-3.1,12.3,7.5,22.6,23.7,20.9c5,2.5,8.6,9.5,16,9.9
				c6.9,0.4,14.5-3.5,19.8-2.8c-0.5,3.8-5.7,2.8-5.5,7.2c9.5,2.9,15.7,6,24.2,3.3c11.5-3.6,16.8-7.4,25.3-13.2
				c4.9-3.3,10.7-5.7,13.2-7.7c3.2-2.5,4.8-7.5,9.4-6.6c-6.1,9.6-20.7,16.2-18.2,30.8c6.1,0.3,13.1-3,20.9-3.9
				c6.2-0.6,12.9,1.9,18.7-0.6c7.9-8.3,23.7-7,36.3-11c8.3-2.7,14.9-7.2,22-9.9c3.7-3.2,7.1-6.5,10.5-9.9c3.3-3.3,6.6-8.1,11-9.4
				c-0.7,5.2-4.5,7.7-2.8,12.7c7.8,1,12-6,18.2-8.3c3.9-1.5,9.1-0.1,13.2-1.1c7.2-1.8,8.3-12.7,14.9-12.7c-0.9,3.5-3.5,5.3-4.4,8.8
				c0.8,2.1,2.5,3.4,3.3,5.5c8-0.9,15-1,20.9-4.4c7.8-4.5,11.2-15.7,19.3-17.6c-2.2,6.4-9.1,10.5-6.6,19.8
				c8.9,5.2,23.6,4.9,36.3,6.1c13.2,1.2,28.2,7.2,42.4,8.3c2.6,0.2,5.3-0.2,7.7,0c6.2,0.6,11.5,3.6,16.5,2.8
				c4.7-0.8,9.7-5.4,13.8-8.3c4.4-3.1,8.7-6.9,13.2-8.3c-2,6.3-7.5,9-7.7,17.1c0.4,0.1,0.6,0.5,0.5,1.1c4.7,1.8,12.4,2.4,18.2,2.2
				c8.9-0.4,12.5-6.2,17.6-7.2c1.2,1.7-1,5,0.5,7.2c11.9,2.2,22.7-0.4,31.9-2.2c4.2-0.8,8.6-0.4,11.6-1.7
				c7.7-3.2,10.1-12.4,17.1-13.8c-0.2,3.5-0.3,3.8-0.6,7.2c14.7,8.5,24.3-7,35.8-9.4c6.9-1.4,14.5,1.2,20.9-0.6
				c5.7-1.6,11.2-7.1,16.5-11c8.3-6,24.1-17.5,12.7-26.4c-1.1-0.9-2.2-2.1-3.9-2.8c-14.7-2.7-27.1-0.3-39.7-1.6
				c-7.4-0.8-14.1-5.4-20.9-7.2c-3.1-0.8-6.8-0.4-9.9-1.1c-1.8-0.4-3.3-1.9-5-2.2c-4.6-0.9-8.7-0.1-13.2-1.7
				c-4.5-1.6-9.1-4.4-13.8-6.6c-4.9-2.3-10.6-3.5-14.9-6.1c-8-4.8-14.8-11.4-22.6-16c-3-1.7-6.8-2.5-9.9-4.4
				c-13.1-8.2-27.6-21-44.1-23.1c-9.1-1.2-17.9,0.1-28.6-1.1c-16.9-2-36.2-9.4-52.9-17.1c-6.8-5.8-15.2-12.6-22-16.5
				c-12,0.3-16.5,9.9-28.6,11.6c-0.5-1.9,3.7-3.9,1.1-4.4c-13.6,2.2-24.3,10.2-34.1,14.3C312.8,285.4,336.5,289.1,346.9,276.2z
				 M307.8,301.5c10.4-7.6,23.4-12.5,38-16c1.4,0.3,0.9,2.4,2.2,2.8c5.7-0.7,6.8-6.1,11-8.3c4.1,0.1,5.7,0.7,8.8-0.6
				c10.7,3.6,16.9,14.7,27,17.1c-14-9.5-23.3-26.7-47.9-23.7c2.5,1.2,0.6,3.5,1.7,6.1C335.3,286.4,315.4,290.3,307.8,301.5z
				 M284.6,267.4c-10.1-2.7-14.5,1.2-25.9,2.8c-5.4,4.8-12.9,5.8-18.7,9.9c-3.7,2.6-6.6,6.2-10.5,8.8c-9.1,6.3-21.6,11.1-28.6,18.7
				c-2.9,9.6-2.2,23.2-1.6,34.7c13.5-1.6,6.6-20.2,11-29.7c-2.5-0.8-4.9-1.7-5.5-4.4c4.4,0.7,9.4,2.4,11,6.6c0.5,1.3-0.4,4.1,0,6.1
				c0.8,3.7,3.2,6.2,2.8,8.8c-0.7,4.2-7.6,8-10.5,9.9c-8.4,5.5-17.4,8.8-30.8,6.6c-6.6-1.1-11.6-5.9-17.6-5
				c-2.3,0.3-8.2,4.8-12.7,7.7c-13,8.4-24.3,16.7-36.9,24.8c-18.8,12-37.4,19.8-47.9,34.7c-5.2,7.4-8.3,17.5-6.6,25.9
				c1.6-5.2,3.3-10.3,6.1-14.3c16.7-12.3,38.8-18.5,55.6-28.6c6.1-3.7,13.3-5.3,19.8-8.8c6.6-3.5,13-7.6,20.4-8.3
				c7.3,0.5,13.4,6,18.2,7.2c12,2.9,24.8-4.3,33-7.2c18.3-6.3,33.6-2.8,55.1,0c14.7,1.9,28.3,0.8,45.2,1.1c5.4,0.1,9.7-0.7,13.8-0.5
				c7.5,0.3,18.8,6.6,28.6,6.6c3.9,0,8.1-1.9,12.1-2.2c11.8-0.8,22,1.5,31.4,2.2c9.1,0.7,19.8-0.6,28.6-2.2c5.3-1,10-2.8,15.4-2.8
				c10.1,0.1,19.9,4.6,29.7,7.2c19.8,5.2,37.2,11,58.9,8.8c2.6-0.3,5.1-1.4,7.7-1.7c15.6-1.4,32.4,0.8,47.9,1.7
				c6.2,0.3,11.9,2.3,17.6,3.3c6.5,1.1,15.9,3.1,21.5-3.3c-6.4,0.9-12-1.9-17.6-3.3c-20.4-5.1-42.4-2.4-60-6.1
				c-8.9-1.8-17.7-5.1-27-6.6c-14.7-2.4-28.8-3.9-42.4-7.7c-9.1-2.5-17.3-7.6-26.4-9.4c-12.7-2.4-26.4,1.8-39.1,2.2
				c-16.5,0.5-33.3-3.3-46.8-3.3c-9.2,0-17.9,3-26.4,1.6c-8.3-1.3-27.1-5.2-33-8.3c-2-1-3.4-4-5.5-5c-12.4-5.9-32.4,0.8-44.6-5.5
				c-1.6-0.8-2-2.8-3.9-4.4c-3.7-3.1-6.6-3.7-8.3-8.3c-2.9-12,7.3-18.3,9.9-28.1c5.3-5.3,9.5-10.5,16.5-13.8
				c5.6-2.6,8.5-5.4,14.3-6.6c3.2-5.4,10.3-7,15.4-10.5c3.3,0,7.4,0.8,6.6-3.3C299.8,263,289.5,263.2,284.6,267.4z M209.7,336.2
				c5.1-3.1,1-15.5,3.9-20.9c-1.1-0.2-1.1-1.5-2.2-1.7C210.3,321.5,208.1,327.7,209.7,336.2z M539.1,351.1
				c9.6,7.2,22.7,12.5,34.7,17.1c2.1,0.8,3.7,2.7,5.5,3.3c3.4,1.1,7,0.1,10.5,0.6c12.8,1.6,25,8.5,39.1,9.9
				c-6.6-5.9-16-5.8-24.8-8.3c-9.5-2.7-19.1-6.2-28.6-8.8c-7.8-2.1-14.3-3.9-20.9-7.2c-3.3-1.6-6.3-3.4-9.4-5
				c-3.2-1.6-7-3.9-8.8-3.3C538.1,349.4,538.2,350.4,539.1,351.1z M676.2,390.2c1.9,8.3-3.8,11.3-5.5,17.6
				c-8,4.7-18.3,15.3-28.6,19.8c-6.9,3-13-0.7-20.9,0.5c-6.6,1-10.9,6-16,8.8c-6.7,3.7-18.1,4.6-23.1,1.1c0.3-2.1-1-2.7-0.6-5
				c-4,1.6-5.7,6.1-9.4,8.8c-6.2,4.5-15.3,5.6-23.7,6.1c-8.8,0.5-18.1,3.8-27,0.5c-0.7-1.3-1.4-2.7-1.6-4.4
				c-10.2,5.5-25.6,5.7-36.9,1.1c1.2-4.3,3.8-10.2,4.4-13.2c-1,3.1-4.3,3.3-7.2,5.5c-2.9,2.3-4.6,6.1-7.7,7.2
				c-7.2,2.4-13.4-1.7-19.3-2.8c-6-1-12.3,0.1-18.7-0.6c-4.6-0.4-8.8-3-13.8-4.4c-16.7-4.7-35.1-3.2-49-5.5
				c-3.6-0.6-6.7-2.9-9.9-4.4c-0.9-4.9,1.4-9.6,1.1-12.1c-6.6,10.5-31.4,24.1-39.1,7.7c-2,8-10.7,5-18.7,7.2
				c-8.5,2.3-15.3,12.8-21.5,7.7c-1.8-1.5-1.5-3.4-0.6-5.5c-8.1,6.2-15.8,14.3-26.4,18.2c-1.6,0.6-3.1,0-5,0.5
				c-4.3,1.3-8.6,4.5-13.2,5.5c-6.5,1.5-14.5,0.5-20.9,3.3c-2.8,1.2-4.2,4-6.6,5c-7.3,3-12.6-0.2-21.5,1.1
				c-7.9,1.1-15.9,7.6-22.6,3.9c-3.8-8.7,3.9-15,5.5-20.9c-12.2,8.7-24.2,17.6-42.4,20.4c-5.7-3.2-11.3-4.8-16.5-6.1
				c-1.4-2-0.1-3.7-1.1-5.5c-4.9-0.5-8.7,0-12.7,1.6c-4.8-2.4-9.6-4.7-13.2-8.3c-12.3-2-24.2-4.4-27-16c-1.1-1.1-3.3,3.8-5.5,1.7
				c-4.2-3.9,1.2-8.9-2.2-13.8c-5.3,6.5-11.7,11.8-17.1,18.2c2.3,2.4,0.4,8.8,0.5,10.5c1.6,2.1,4.7,2.7,6.1,5
				c6.7,2.7,13.7,4.1,20.9,6.6c6.7,2.3,12.5,6.1,19.3,8.8c14,5.7,31.8,8.6,47.9,10.5c15.1,1.7,32.4,5.8,47.4,4.4
				c7.6-0.7,15.6-4.9,23.1-2.8c-13.1,2.6-26.3,7.3-39.6,4.4c-2.1-0.4-3.9-1.8-6.1-2.2c-1.9-0.3-4,0.2-6.1,0c-2.9-0.3-5.6-2-8.3-2.2
				c-8.8-0.6-16.5-0.4-23.7-1.7c-8.5-1.4-16.7-3-24.2-5c-7.3-1.9-14.9-6.8-20.4-9.4c-2.4-1.2-5.2-1.1-7.7-2.2
				c-1.6-0.7-2.6-2.3-4.4-2.8c-1.8-0.5-3.8,0.3-5.5,0c-8.4-1.5-15-5.9-21.5-10.5c0.6-2.3,2.8-5.5,1.1-8.3c-3.8,3.5-3,9.7-5,14.9
				c-1.3,3.4-3.8,6.5-5,9.9c-3.2,9.3,4.8,19.7,6.1,30.8c2.1,18.5-0.2,34.7,0.6,50.1c4.1,2.7,6.3,7.3,12.7,7.7c6,5.3,12.5,9,19.8,11
				c1.4,0.4,2.7-0.4,4.4,0c6,1.2,12.5,5,19.8,6.1c10.8,1.5,19.8,0.3,28.1,0c6.8-0.2,13.9,1.7,20.9,2.8c24,3.6,46.9,7.9,67.7-1.1
				c9.4-4.1,18.8-9.2,28.1-12.7c5.3-2,10.3-3.5,15.4-6.1c18.9-9.5,41.4-16.2,62.2-23.1c17.5-5.8,36.4-13.6,58.9-12.7
				c17.2,0.7,33.8,5.8,51.8,7.2c9,0.7,18.4-0.9,27.5-0.6c14.3,0.5,29-0.2,42.4,0c30.7,0.4,54.7,4.1,80.4,0
				c10.7-1.7,18.7-4.3,28.6-7.2c21.3-6.2,45-16.5,60.6-31.9c8.6-8.6,21-19.9,24.8-30.3c3.3-9.1,3.1-25.4,6.1-40.2
				c1-4.9,4.1-11.9,3.9-17.1c-0.3-7.1-12-15-20.9-14.9C673.2,389.1,676,388.4,676.2,390.2z"/>
			<g>
				<path fill-rule="evenodd" clip-rule="evenodd" fill="#DADFE1" d="M304.3,266.2c0.8,4.1-3.3,3.3-6.6,3.3
					c-5.1,3.5-12.2,5.1-15.4,10.5c-5.8,1.2-8.7,4-14.3,6.6c-7,3.3-11.2,8.5-16.5,13.8c-2.7,9.8-12.8,16.1-9.9,28.1
					c1.7,4.6,4.6,5.2,8.3,8.3c1.9,1.6,2.3,3.6,3.9,4.4c12.2,6.3,32.2-0.4,44.6,5.5c2.1,1,3.5,3.9,5.5,5c5.9,3,24.7,6.9,33,8.3
					c8.5,1.4,17.3-1.7,26.4-1.7c13.5,0,30.3,3.8,46.8,3.3c12.7-0.4,26.4-4.6,39.1-2.2c9.2,1.7,17.3,6.8,26.4,9.4
					c13.6,3.8,27.7,5.3,42.4,7.7c9.3,1.5,18.1,4.8,27,6.6c17.6,3.6,39.6,1,60,6.1c5.6,1.4,11.2,4.2,17.6,3.3
					c-5.6,6.4-15,4.4-21.5,3.3c-5.8-1-11.5-3-17.6-3.3c-15.5-0.9-32.3-3.1-47.9-1.7c-2.6,0.2-5.1,1.4-7.7,1.7
					c-21.7,2.2-39.2-3.6-58.9-8.8c-9.9-2.6-19.6-7-29.7-7.2c-5.4-0.1-10.1,1.8-15.4,2.8c-8.8,1.6-19.6,2.9-28.6,2.2
					c-9.4-0.7-19.6-3-31.4-2.2c-4,0.3-8.2,2.2-12.1,2.2c-9.8,0-21.1-6.3-28.6-6.6c-4.1-0.2-8.4,0.6-13.8,0.5
					c-16.8-0.3-30.5,0.8-45.2-1.1c-21.5-2.8-36.7-6.3-55.1,0c-8.3,2.8-21,10.1-33,7.2c-4.8-1.2-10.8-6.7-18.2-7.2
					c-7.4,0.6-13.8,4.7-20.4,8.3c-6.5,3.5-13.7,5.1-19.8,8.8c-16.8,10.1-38.9,16.3-55.6,28.6c-2.7,4.1-4.5,9.1-6.1,14.3
					c-1.7-8.4,1.4-18.5,6.6-25.9c10.5-14.9,29.1-22.6,47.9-34.7c12.6-8.1,23.9-16.4,36.9-24.8c4.5-2.9,10.3-7.4,12.7-7.7
					c6.1-0.9,11.1,3.9,17.6,5c13.4,2.2,22.5-1.1,30.8-6.6c2.9-1.9,9.8-5.7,10.5-9.9c0.4-2.6-1.9-5.1-2.8-8.8c-0.4-2,0.5-4.8,0-6.1
					c-1.6-4.3-6.6-5.9-11-6.6c0.6,2.7,3,3.6,5.5,4.4c-4.5,9.5,2.4,28.2-11,29.7c-0.6-11.5-1.2-25.1,1.7-34.7
					c7-7.6,19.6-12.4,28.6-18.7c3.8-2.6,6.8-6.2,10.5-8.8c5.8-4.1,13.4-5.1,18.7-9.9c11.4-1.5,15.8-5.5,25.9-2.8
					C289.8,263.1,300.2,263,304.3,266.2z M204.1,337.8c-1.6-5.5,2.8-17.8,0.5-23.7C204.3,321,201,332.9,204.1,337.8z"/>
				<path fill-rule="evenodd" clip-rule="evenodd" fill="#DADFE1" d="M305.4,298.1c-1.5,0.5-2.1,1.9-3.9,2.2
					c-0.8,3.4-3.8,4.7-4.4,8.3c-4.2,4.3-11.6,6.3-18.2,9.4c-8,3.8-13.4,10.1-20.9,13.8c9.6-17,32-21.3,45.7-34.1
					C304.6,297.4,304.7,298.1,305.4,298.1z"/>
				<path fill-rule="evenodd" clip-rule="evenodd" fill="#2E2A25" d="M395.1,309.7c0.6,2.1-1.2,1.8-1.7,2.8
					c-4.2-0.4-6.9-2.3-10.5-3.3c-2.6-0.1-2.6,2.5-5,2.8C379.4,302.5,390.6,312.2,395.1,309.7z"/>
				<path fill-rule="evenodd" clip-rule="evenodd" fill="#DADFE1" d="M211.8,313.6c1.1,0.2,1.1,1.5,2.2,1.7
					c-2.8,5.4,1.3,17.8-3.9,20.9C208.5,327.7,210.7,321.4,211.8,313.6z"/>
				<path fill-rule="evenodd" clip-rule="evenodd" fill="#2E2A25" d="M204.6,314.1c2.3,5.9-2.2,18.1-0.5,23.7
					C201,332.9,204.3,321,204.6,314.1z"/>
				<path fill-rule="evenodd" clip-rule="evenodd" fill="#DADFE1" d="M339,326.8c-5.5,10.6-18.7,13.6-28.6,19.8
					c1.2-5.1,7.2-6.3,11-8.8c5.8-3.7,11.5-7.2,16.5-11.6C338.5,326.1,338.8,326.3,339,326.8z"/>
				<path fill-rule="evenodd" clip-rule="evenodd" fill="#DADFE1" d="M378.6,331.2c-6.4,8.1-19.5,9.5-27.5,16
					c4.5-7.4,17.6-11,25.3-17.1C377.7,329.9,378.5,330.2,378.6,331.2z"/>
				<path fill-rule="evenodd" clip-rule="evenodd" fill="#2E2A25" d="M438.6,335.6c0.7,2.9,2.7,1.3,5,2.8c-0.7,2.3,0.9,2.4,1.1,3.9
					c-0.4,0.5-1.5,0.3-1.7,1.1c-1.5-0.2-2.3-2.6-1.1-3.9c-1.9,0.2-3.1-0.2-4.4-0.6C437.1,337,438.1,336.6,438.6,335.6z"/>
				<path fill-rule="evenodd" clip-rule="evenodd" fill="#2E2A25" d="M475.5,335.6c-3.7,3.6-6.5,8.2-12.1,9.9
					C466.7,341.4,469.5,336.9,475.5,335.6z"/>
				<path fill-rule="evenodd" clip-rule="evenodd" fill="#2E2A25" d="M397.9,343.3c-1,2.9-4.6,3.1-7.2,4.4
					C392,345.4,395.1,342.4,397.9,343.3z"/>
				<path fill-rule="evenodd" clip-rule="evenodd" fill="#2E2A25" d="M503.1,357.6c-2,0.2-5.6,1.7-6.6,1.1
					C497.5,357.4,503.1,353.3,503.1,357.6z"/>
				<path fill-rule="evenodd" clip-rule="evenodd" fill="#DADFE1" d="M282.2,385.7c-6,7.6-16.7,13.4-24.2,17.6
					c7.2-6.2,14.4-12.4,22-18.2C281.2,384.9,281.5,385.5,282.2,385.7z"/>
				<path fill-rule="evenodd" clip-rule="evenodd" fill="#DADFE1" d="M673.8,386.8c8.9-0.1,20.6,7.8,20.9,14.9
					c0.2,5.2-2.9,12.2-3.9,17.1c-3,14.8-2.7,31.1-6.1,40.2c-3.8,10.4-16.1,21.7-24.8,30.3c-15.5,15.4-39.3,25.7-60.6,31.9
					c-9.9,2.9-17.9,5.5-28.6,7.2c-25.7,4.1-49.7,0.4-80.4,0c-13.4-0.2-28.1,0.5-42.4,0c-9.2-0.3-18.5,1.2-27.5,0.5
					c-18-1.4-34.5-6.4-51.8-7.2c-22.5-1-41.5,6.9-58.9,12.7c-20.9,6.9-43.4,13.6-62.2,23.1c-5.1,2.6-10.2,4.1-15.4,6.1
					c-9.3,3.5-18.7,8.6-28.1,12.7c-20.8,9-43.7,4.7-67.7,1.1c-7-1.1-14.2-3-20.9-2.8c-8.3,0.3-17.3,1.5-28.1,0
					c-7.3-1-13.9-4.8-19.8-6.1c-1.7-0.4-3,0.4-4.4,0c-7.3-2-13.9-5.7-19.8-11c-6.4-0.4-8.5-5-12.7-7.7c-0.7-15.4,1.6-31.6-0.6-50.1
					c-1.3-11.1-9.2-21.5-6.1-30.8c1.2-3.4,3.7-6.5,5-9.9c2-5.2,1.1-11.4,5-14.9c1.7,2.8-0.5,6-1.1,8.3c6.4,4.6,13.1,8.9,21.5,10.5
					c1.7,0.3,3.7-0.5,5.5,0c1.8,0.5,2.8,2,4.4,2.8c2.5,1.1,5.3,1,7.7,2.2c5.4,2.6,13.1,7.5,20.4,9.4c7.6,1.9,15.8,3.5,24.2,5
					c7.2,1.2,14.9,1,23.7,1.6c2.6,0.2,5.3,1.9,8.3,2.2c2,0.2,4.2-0.3,6.1,0c2.2,0.4,4,1.8,6.1,2.2c13.3,2.9,26.6-1.8,39.6-4.4
					c-7.6-2.1-15.5,2.1-23.1,2.8c-15,1.4-32.2-2.7-47.4-4.4c-16.1-1.8-33.9-4.8-47.9-10.5c-6.8-2.8-12.6-6.5-19.3-8.8
					c-7.2-2.5-14.3-3.9-20.9-6.6c-1.4-2.3-4.5-2.8-6.1-5c-0.2-1.6,1.7-8.1-0.6-10.5c5.4-6.4,11.8-11.7,17.1-18.2
					c3.4,4.9-2,9.8,2.2,13.8c2.2,2.1,4.4-2.7,5.5-1.7c2.7,11.6,14.7,13.9,27,16c3.6,3.5,8.4,5.9,13.2,8.3c3.9-1.6,7.7-2.2,12.7-1.6
					c1,1.8-0.3,3.5,1.1,5.5c5.2,1.3,10.8,2.9,16.5,6.1c18.2-2.7,30.2-11.6,42.4-20.4c-1.6,5.9-9.3,12.2-5.5,20.9
					c6.7,3.8,14.7-2.7,22.6-3.9c8.9-1.3,14.2,1.9,21.5-1.1c2.4-1,3.8-3.7,6.6-5c6.4-2.8,14.4-1.8,20.9-3.3c4.6-1,9-4.2,13.2-5.5
					c1.8-0.6,3.4,0,5-0.5c10.6-3.9,18.4-11.9,26.4-18.2c-0.9,2.1-1.2,4.1,0.6,5.5c6.2,5.1,13-5.5,21.5-7.7c8-2.1,16.7,0.9,18.7-7.2
					c7.7,16.4,32.5,2.8,39.1-7.7c0.3,2.5-2,7.2-1.1,12.1c3.2,1.5,6.3,3.8,9.9,4.4c14,2.3,32.3,0.8,49,5.5c5,1.4,9.2,4,13.8,4.4
					c6.5,0.6,12.7-0.5,18.7,0.5c5.9,1,12,5.2,19.3,2.8c3.1-1,4.8-4.8,7.7-7.2c2.8-2.2,6.2-2.4,7.2-5.5c-0.6,3-3.2,8.9-4.4,13.2
					c11.3,4.6,26.7,4.4,36.9-1.1c0.3,1.7,1,3.1,1.7,4.4c8.9,3.3,18.2,0,27-0.6c8.4-0.5,17.5-1.6,23.7-6.1c3.7-2.7,5.4-7.2,9.4-8.8
					c-0.4,2.3,0.8,2.8,0.6,5c5.1,3.5,16.4,2.6,23.1-1.1c5.1-2.8,9.4-7.8,16-8.8c8-1.2,14,2.5,20.9-0.5c10.3-4.6,20.6-15.1,28.6-19.8
					c1.7-6.3,7.4-9.3,5.5-17.6C676.3,388.3,673.6,389,673.8,386.8z M685.3,405.5c-6.1,12.7-14.4,21.8-26.4,28.1
					c-4.6,2.4-12.6,5.2-12.7,10.5c15.4-11.1,36.5-16.4,41.3-38C686.5,406.2,686.3,405.5,685.3,405.5z M424.3,453.4
					c-10.2-1.4-23.1-2.2-34.1-3.9c-16.9-2.6-37.9-9.2-52.3-2.8c9.4,0.5,21.6-2.1,31.4,0c6.5,1.4,17.6,4.9,24.2,6.1
					c6.2,1.1,12.7,0.6,19.3,1.6c6.7,1.1,13.3,2.6,20.4,2.8c6.9,0.1,13.9-0.5,20.9,0c13.9,1,26.1,5.5,39.1,3.3
					C472.4,455.9,448,456.8,424.3,453.4z M633,445.7c-13,5.1-27.5,2.1-41.3,5.5c-3.6,0.9-6.8,3.3-10.5,3.9c-3.2,0.4-6.7-0.2-9.9,0
					c-12.3,0.8-24.3,5.9-36.3,5.5c-8.1-0.3-16.4-1.2-23.7,1.7c12.3,0.7,22.8-0.2,35.8-1.1c14.4-1,29.5,0.8,40.2-2.8
					c4.9-1.6,9.2-5,14.9-6.1c9.2-1.7,19.7-0.3,28.6-3.3c1.9-0.6,6.5-2.9,5.5-3.9C634.5,445.1,634.1,445.3,633,445.7z M215.1,480.4
					c8.8-1.5,17.5-5.8,26.4-9.4c16.3-6.5,34.2-14,52.3-17.6c7.4-1.5,13.7-1,22.6-2.2c2.9-0.4,9.9-1.7,7.7-3.3
					C278.7,449.7,246.2,464.4,215.1,480.4z"/>
				<path fill-rule="evenodd" clip-rule="evenodd" fill="#DADFE1" d="M358.8,391.2c-3.8,1.6-7.3,3.6-11,4.4
					c-9.6,2.1-21.5-2.1-30.3,0.6c-7,2.1-12.1,12.6-22.6,11c2.5-4.4,8.7-5.3,10.5-10.5c5.2-2.3,7.5-5.5,12.7-6.6
					c7.7-1.7,15.6,2.2,23.7,2.2C347.5,392.3,353,389,358.8,391.2z"/>
				<path fill-rule="evenodd" clip-rule="evenodd" fill="#2E2A25" d="M505.3,400.6c-1,3.6-5.7,1.8-8.3,2.8c-3,1.1-3.6,4.1-6.6,3.9
					C492.1,402.1,499.1,399.4,505.3,400.6z"/>
				<path fill-rule="evenodd" clip-rule="evenodd" fill="#2E2A25" d="M446.9,400.6c2.6,1.2-2.8,1.8-3.3,3.3c0.1,5.6-4.8,6.2-8.3,8.3
					c0-4.9,7.5-2.4,6.1-8.8C443.3,402.5,444.7,401.1,446.9,400.6z"/>
				<path fill-rule="evenodd" clip-rule="evenodd" fill="#2E2A25" d="M457.4,402.2c1,0.1,1.3,0.9,1.1,2.2c-0.6,0.5-1.5,0.7-2.7,0.6
					C456,403.8,456.9,403.2,457.4,402.2z"/>
				<path fill-rule="evenodd" clip-rule="evenodd" fill="#2E2A25" d="M581.3,406.1c-1.9,2.1-3.8,6.1-6.6,5.5
					C575.5,408.4,578.1,405.1,581.3,406.1z"/>
				<path fill-rule="evenodd" clip-rule="evenodd" fill="#2E2A25" d="M687.5,406.1c-4.8,21.6-26,26.9-41.3,38c0.1-5.2,8-8,12.7-10.5
					c12-6.3,20.4-15.3,26.4-28.1C686.3,405.5,686.5,406.2,687.5,406.1z"/>
				<path fill-rule="evenodd" clip-rule="evenodd" fill="#2E2A25" d="M288.3,408.8c-5.2,5.3-10,11-18.2,13.2
					c4.6-5.2,11.8-7.7,15.4-13.8C286.8,408.1,287.7,408.4,288.3,408.8z"/>
				<path fill-rule="evenodd" clip-rule="evenodd" fill="#2E2A25" d="M250.9,408.8c-1.5,2.1-4.2,3.1-5.5,5.5
					C244.3,411.8,248.1,409.4,250.9,408.8z"/>
				<path fill-rule="evenodd" clip-rule="evenodd" fill="#2E2A25" d="M214,424.8c-5.6,1-4.5,8.7-11,8.8c1.2-2.6,5.4-2.3,4.4-7.2
					C209.4,425.9,212.1,422.1,214,424.8z"/>
				<path fill-rule="evenodd" clip-rule="evenodd" fill="#DADFE1" d="M154.5,429.2c-10.5,9.4-22,17.6-38.5,20.9
					c-2.3-0.1-2.3,2.1-4.4,2.2c0.6-4.5,6.8-4.2,9.4-5.5c1.3-0.6,3-3,4.4-3.9c2.1-1.3,4.5-1.6,6.6-2.8
					C139.2,436.2,146.2,431.5,154.5,429.2z"/>
				<path fill-rule="evenodd" clip-rule="evenodd" fill="#2E2A25" d="M493.1,460.6c-13,2.2-25.2-2.3-39.1-3.3c-7-0.5-14,0.1-20.9,0
					c-7.1-0.1-13.6-1.7-20.4-2.8c-6.6-1-13.1-0.5-19.3-1.6c-6.6-1.2-17.7-4.6-24.2-6.1c-9.8-2.1-22,0.5-31.4,0
					c14.4-6.5,35.4,0.2,52.3,2.8c11.1,1.7,24,2.4,34.1,3.9C448,456.8,472.4,455.9,493.1,460.6z"/>
				<path fill-rule="evenodd" clip-rule="evenodd" fill="#2E2A25" d="M636.3,445.2c1,0.9-3.6,3.2-5.5,3.9c-8.9,3-19.4,1.6-28.6,3.3
					c-5.6,1-9.9,4.4-14.9,6.1c-10.8,3.6-25.8,1.8-40.2,2.8c-13,0.9-23.5,1.8-35.8,1.1c7.2-2.9,15.6-1.9,23.7-1.7
					c12,0.4,24-4.7,36.3-5.5c3.2-0.2,6.7,0.4,9.9,0c3.7-0.5,6.9-3,10.5-3.9c13.8-3.4,28.3-0.4,41.3-5.5
					C634.1,445.3,634.5,445.1,636.3,445.2z"/>
				<path fill-rule="evenodd" clip-rule="evenodd" fill="#2E2A25" d="M324.1,447.9c2.2,1.6-4.8,2.9-7.7,3.3
					c-8.9,1.2-15.1,0.7-22.6,2.2c-18.1,3.6-36,11.1-52.3,17.6c-8.9,3.6-17.7,7.8-26.4,9.4C246.2,464.4,278.7,449.7,324.1,447.9z"/>
				<path fill-rule="evenodd" clip-rule="evenodd" fill="#2E2A25" d="M698,400.6c-2.1,12.1-5,23.3-7.7,35.8c-2.2,10-1,20.7-5.5,28.1
					c-1.8,2.9-4.8,5.9-7.7,9.4c-2.8,3.4-5,7.7-7.2,9.9c-6.6,6.9-15.1,10.9-20.4,18.2c-15.3,7.5-35.7,18.3-54.5,24.2
					c-8.3,2.6-21,3.4-31.9,5c-27.9,3.9-53.5-0.8-80.4-0.6c-16,0.2-32.2,0.5-48.5,0.6c-7.7,0-15.5-0.6-23.1-1.7
					c-7.9-1.1-15.9-0.8-23.1-2.2c-8-1.5-21.3-4-31.4-2.8c-5.2,0.6-11.1,2.3-16.5,3.3c-16,3-31,8.9-45.7,13.8
					c-19.8,6.5-38.2,15-55.6,22.6c-7.7,3.4-16.7,3.7-21.5,10.5c-4.1-2.2-7.1,2-10.5,3.3c-17.6,6.7-38,5.6-57.8,3.3
					c-9.7-1.1-19.3-4.4-29.2-5c-9.9-0.5-20,1.9-29.7,1.1c-4-0.3-8.8-2.1-13.8-3.3c-10.4-2.4-17.4-4.7-25.9-8.8
					c-4.4-2.2-9.4-4.3-12.1-6.1c-2.9-1.9-9.4-7.3-10.5-9.9c-1.6-4,0.5-14.9,0.6-20.9c0.1-9.4,1-18.5-1.1-29.7
					c-1.6-8.6-6.4-16.7-6.6-24.2c-0.3-11.9,10.4-19.2,9.9-31.9c6.1-7.8,13.5-15,20.9-22.6c2.5-2.5,5.4-4.5,7.2-7.2
					c1.5-2.3,1.8-5.3,3.3-7.7c1.9-3,6.8-6.6,11-9.9c10.1-8,19.6-13,31.9-20.4c6.2-3.7,11.9-9.2,18.2-12.7
					c5.7-3.1,12.5-6.7,19.3-11.6c5.6-4,13.7-11.9,18.7-12.1c5.1-0.2,11,4.4,17.1,5.5c5.8,1,10.6,0.5,16.5,0.6
					c3.3-10.7,0.4-28.5,2.8-39.6c17.9-9.6,34-20.1,48.5-31.9c8.1-1.6,16.5-7.7,27-8.8c3.5-0.4,7,0.5,10.5,0c3-0.5,5.2-2.8,8.3-3.3
					c6.1-1.1,13.4-0.5,16.5,3.9c5-0.1,9.9,0.9,14.9,1.7c4.7,0.7,8.9,2.8,13.2,3.3c7.1,0.9,14.3-0.4,20.9,0.6
					c6.9,1,14.1,3.6,19.3,7.2c4,2.7,6.6,7.2,10.5,10.5c17,14.4,38.8,22.6,66.1,25.3c7.2,0.7,14.6-0.3,22.6,1.1
					c19.5,3.5,31.8,18.8,51.2,27.5c5.4,2.4,11,3.7,16.5,6.6c4.7,2.5,9.7,6,14.9,8.3c18.8,8.2,42.4,11.3,63.9,18.7
					c6.9,2.4,14.3,5.5,20.9,6.6c6,1,12.4-0.7,18.7,0c2.6,0.3,5.8,2.3,9.4,2.8c6.7,0.8,12.1,0.2,16.5,2.8
					C691.6,391.2,695.2,395.5,698,400.6z M347.2,276.1c-9.4-6.9-24-5.3-35.8-9.4c-9.1,4.1-23.6,7.1-30.3,15.4
					c-6.8,2.6-15.3,5.8-22,11.6c-4.1,3.5-5.6,8.6-8.3,13.2c-3.6,6.3-9.3,10.8-8.8,17.1c0.6,7.7,7.8,11.2,12.7,16
					c13.2,4.6,31.3,1.3,44.6,6.1c5.4,5.5,12.1,6.8,21.5,9.4c5.6,1.6,12.4,2.9,17.6,3.3c10.8,0.8,21.4-2.5,31.9-1.7
					c12.7,1,24.1,3.5,35.8,3.3c8.7-0.1,16.6-2.4,25.9-3.3c16.3-1.7,25.6,4,38.5,8.3c8.8,2.9,18.2,4.6,27.5,6.6
					c9.3,2,19.7,3,29.7,5.5c10,2.5,20.3,5.6,30.3,6.1c15.2,0.8,27.7,0.4,41.3,2.2c4.9,0.6,10.9,3.8,15.4,4.4
					c2.2,0.3,8.4-2.3,9.9,2.2c-0.3,2.9-2.6,4-4.4,5.5c-14.4,1.5-26-2.9-38-3.9c-18.1-1.4-34.7-2.4-51.8-0.6
					c-10.9,1.2-22.4,0.5-30.8-1.1c-7.9-1.5-12.9-2.8-19.3-4.4c-11.6-2.9-24-8.1-35.8-9.4c-13.7-1.5-26.1,4.2-42.4,4.4
					c-6.1,0.1-12.3-2-18.7-2.2c-2.5-0.1-4.8,1.1-7.2,1.1c-3.7,0-7.1-1.8-11-1.7c-4.6,0.2-8.6,1.4-13.8,2.8c-3.6-2.2-7.2-1-11.6-1.7
					c-5.8-0.8-10.9-4.6-16.5-5c-2.6-0.2-5.1,1-7.7,1.1c-25.2,1-53.2-3.6-77.1-5.5c-3.9-0.3-8-0.7-11.6-0.6
					c-12.4,0.5-14.3,5-19.8,11.6c-7,8.3-15.5,12.3-22.6,19.8c3.2,0.3,5.7-3.1,8.8-1.1c-5,7.4-15.6,12.3-23.1,17.1
					c-2.4,1.5-6.5,2.9-6.1,5.5c15.4-5.3,28.5-13,38-24.2c-1.3-0.8-3.4-0.6-3.3-2.8c13.2-8.9,26.7-20.3,43.5-23.7
					c-8.3,5.7-20.4,7.5-28.1,13.8c-2.9,4.2-7.2,7.2-12.1,9.4c-0.7,2.5,2.4,1.2,1.7,3.9c-11.5,13.1-29.7,22.4-47.4,27.5
					c9.4-10.8,25.3-15.1,34.7-25.9c-3.5-0.6-6.4,4.1-8.8,1.1c8.5-9.8,24.1-15.5,28.1-28.1c-10.1,4-20.3,9.8-35.2,7.2
					c-15-12.4-31.2-0.9-43.5,5c-4,1.9-8.7,2.7-12.1,4.4c-4.3,2.1-7.7,4.8-12.1,6.6c-8.1,3.3-17.5,7.6-24.8,11
					c-8.8,4.1-17.9,8.2-21.5,16c-3.1,12.3,7.5,22.6,23.7,20.9c5,2.5,8.5,9.5,16,9.9c6.9,0.4,14.5-3.5,19.8-2.8
					c-0.5,3.8-5.7,2.8-5.5,7.2c9.5,2.9,15.7,6,24.2,3.3c11.5-3.6,16.8-7.4,25.3-13.2c4.9-3.3,10.7-5.7,13.2-7.7
					c3.2-2.5,4.8-7.5,9.4-6.6c-6.1,9.6-20.7,16.2-18.2,30.8c6.1,0.3,13.1-3,20.9-3.9c6.2-0.6,12.9,1.9,18.7-0.5
					c7.9-8.3,23.7-7,36.3-11c8.3-2.7,14.9-7.2,22-9.9c3.7-3.2,7.1-6.5,10.5-9.9c3.3-3.3,6.6-8.1,11-9.4c-0.7,5.2-4.5,7.7-2.8,12.7
					c7.8,1,12-6,18.2-8.3c3.9-1.5,9.1-0.1,13.2-1.1c7.2-1.8,8.3-12.7,14.9-12.7c-0.9,3.5-3.5,5.3-4.4,8.8c0.8,2.1,2.5,3.4,3.3,5.5
					c8-0.9,15-1,20.9-4.4c7.8-4.5,11.2-15.7,19.3-17.6c-2.2,6.4-9.1,10.5-6.6,19.8c8.9,5.2,23.6,4.9,36.3,6.1
					c13.2,1.2,28.2,7.2,42.4,8.3c2.6,0.2,5.3-0.2,7.7,0c6.2,0.6,11.5,3.6,16.5,2.7c4.7-0.8,9.7-5.4,13.8-8.3
					c4.5-3.1,8.7-6.9,13.2-8.3c-2,6.3-7.5,9-7.7,17.1c0.4,0.1,0.6,0.5,0.5,1.1c4.7,1.8,12.4,2.4,18.2,2.2c8.9-0.4,12.5-6.2,17.6-7.2
					c1.2,1.7-1,5,0.6,7.2c11.9,2.2,22.7-0.4,31.9-2.2c4.2-0.8,8.6-0.4,11.6-1.7c7.7-3.2,10.1-12.4,17.1-13.8
					c-0.2,3.5-0.3,3.8-0.5,7.2c14.7,8.5,24.3-7,35.8-9.4c6.9-1.4,14.5,1.2,20.9-0.6c5.7-1.6,11.2-7.1,16.5-11
					c8.3-6,24.1-17.5,12.7-26.4c-1.1-0.9-2.2-2.1-3.9-2.8c-14.7-2.7-27.1-0.3-39.7-1.7c-7.4-0.8-14.1-5.4-20.9-7.2
					c-3.1-0.8-6.8-0.4-9.9-1.1c-1.8-0.4-3.3-1.9-5-2.2c-4.6-0.9-8.7-0.1-13.2-1.7c-4.5-1.6-9.1-4.4-13.8-6.6
					c-4.9-2.3-10.6-3.5-14.9-6.1c-8-4.8-14.8-11.4-22.6-16c-3-1.7-6.8-2.5-9.9-4.4c-13.1-8.2-27.6-21-44.1-23.1
					c-9.1-1.2-17.9,0.1-28.6-1.1c-16.9-2-36.2-9.4-52.9-17.1c-6.8-5.8-15.2-12.6-22-16.5c-12,0.3-16.5,9.9-28.6,11.6
					c-0.5-1.9,3.7-3.9,1.1-4.4c-13.6,2.2-24.3,10.2-34.1,14.3C313.2,285.4,336.8,289,347.2,276.1z M308.1,301.4
					c10.4-7.6,23.4-12.5,38-16c1.4,0.3,0.9,2.4,2.2,2.8c5.7-0.7,6.8-6.1,11-8.3c4.1,0.1,5.7,0.7,8.8-0.6c10.7,3.6,16.9,14.7,27,17.1
					c-14-9.5-23.3-26.7-47.9-23.7c2.6,1.2,0.6,3.5,1.7,6.1C335.6,286.4,315.8,290.2,308.1,301.4z M285,267.3
					c-10.1-2.7-14.5,1.3-25.9,2.8c-5.4,4.8-12.9,5.8-18.7,9.9c-3.7,2.6-6.6,6.2-10.5,8.8c-9.1,6.3-21.6,11.1-28.6,18.7
					c-2.9,9.6-2.2,23.2-1.7,34.7c13.5-1.6,6.6-20.2,11-29.7c-2.5-0.8-4.9-1.7-5.5-4.4c4.4,0.7,9.4,2.4,11,6.6c0.5,1.3-0.4,4.1,0,6.1
					c0.8,3.7,3.2,6.2,2.8,8.8c-0.7,4.2-7.6,8-10.5,9.9c-8.4,5.5-17.4,8.8-30.8,6.6c-6.6-1.1-11.6-5.9-17.6-5
					c-2.3,0.3-8.2,4.8-12.7,7.7c-13,8.4-24.3,16.7-36.9,24.8c-18.8,12-37.4,19.8-47.9,34.7c-5.2,7.4-8.3,17.5-6.6,25.9
					c1.5-5.2,3.3-10.3,6.1-14.3c16.7-12.3,38.8-18.5,55.6-28.6c6.1-3.7,13.3-5.3,19.8-8.8c6.6-3.5,13-7.6,20.4-8.3
					c7.3,0.5,13.4,6,18.2,7.2c12,2.9,24.8-4.3,33-7.2c18.3-6.3,33.6-2.8,55.1,0c14.7,1.9,28.3,0.8,45.2,1.1
					c5.4,0.1,9.7-0.7,13.8-0.5c7.5,0.3,18.8,6.6,28.6,6.6c3.9,0,8.1-1.9,12.1-2.2c11.8-0.8,22,1.5,31.4,2.2
					c9.1,0.7,19.8-0.6,28.6-2.2c5.3-1,10-2.8,15.4-2.8c10.1,0.1,19.9,4.6,29.7,7.2c19.8,5.2,37.2,11,58.9,8.8
					c2.6-0.3,5.1-1.4,7.7-1.7c15.6-1.4,32.4,0.8,47.9,1.7c6.2,0.3,11.9,2.3,17.6,3.3c6.5,1.1,15.9,3.1,21.5-3.3
					c-6.4,0.9-12-1.9-17.6-3.3c-20.4-5.1-42.4-2.4-60-6.1c-8.9-1.8-17.6-5.1-27-6.6c-14.7-2.4-28.8-3.9-42.4-7.7
					c-9.1-2.5-17.3-7.6-26.4-9.4c-12.6-2.4-26.4,1.8-39.1,2.2c-16.5,0.5-33.3-3.3-46.8-3.3c-9.2,0-17.9,3-26.4,1.7
					c-8.3-1.3-27.1-5.2-33-8.3c-2-1-3.4-4-5.5-5c-12.4-5.9-32.4,0.8-44.6-5.5c-1.6-0.8-2-2.8-3.9-4.4c-3.7-3.1-6.6-3.7-8.3-8.3
					c-2.9-12,7.3-18.3,9.9-28.1c5.3-5.3,9.5-10.5,16.5-13.8c5.6-2.6,8.5-5.4,14.3-6.6c3.2-5.4,10.3-7,15.4-10.5
					c3.3,0,7.4,0.8,6.6-3.3C300.2,263,289.8,263.1,285,267.3z M210.1,336.1c5.1-3.1,1-15.5,3.9-20.9c-1.1-0.2-1.1-1.5-2.2-1.7
					C210.7,321.4,208.5,327.7,210.1,336.1z M539.4,351c9.6,7.2,22.8,12.5,34.7,17.1c2.1,0.8,3.7,2.7,5.5,3.3c3.4,1.1,7,0.1,10.5,0.6
					c12.8,1.6,25,8.5,39.1,9.9c-6.6-5.9-16-5.8-24.8-8.3c-9.5-2.7-19.1-6.2-28.6-8.8c-7.8-2.1-14.3-3.9-20.9-7.2
					c-3.3-1.6-6.3-3.4-9.4-5c-3.2-1.6-7-3.9-8.8-3.3C538.5,349.3,538.5,350.4,539.4,351z M676.5,390.1c1.9,8.3-3.8,11.3-5.5,17.6
					c-8,4.7-18.3,15.3-28.6,19.8c-6.9,3.1-13-0.7-20.9,0.5c-6.6,1-10.9,6-16,8.8c-6.7,3.7-18.1,4.6-23.1,1.1c0.3-2.1-1-2.7-0.6-5
					c-4,1.6-5.7,6.1-9.4,8.8c-6.2,4.5-15.3,5.6-23.7,6.1c-8.8,0.5-18.1,3.8-27,0.6c-0.7-1.3-1.4-2.7-1.7-4.4
					c-10.2,5.5-25.6,5.7-36.9,1.1c1.2-4.3,3.8-10.2,4.4-13.2c-1,3.1-4.4,3.3-7.2,5.5c-3,2.3-4.6,6.1-7.7,7.2
					c-7.2,2.4-13.4-1.7-19.3-2.8c-6-1-12.2,0.1-18.7-0.5c-4.6-0.4-8.8-3-13.8-4.4c-16.7-4.7-35.1-3.2-49-5.5
					c-3.6-0.6-6.7-2.9-9.9-4.4c-0.9-4.9,1.4-9.6,1.1-12.1c-6.6,10.5-31.4,24.1-39.1,7.7c-2,8-10.7,5-18.7,7.2
					c-8.5,2.3-15.3,12.8-21.5,7.7c-1.8-1.5-1.5-3.4-0.6-5.5c-8.1,6.2-15.8,14.3-26.4,18.2c-1.6,0.6-3.1,0-5,0.5
					c-4.3,1.3-8.6,4.5-13.2,5.5c-6.6,1.5-14.5,0.5-20.9,3.3c-2.8,1.2-4.2,4-6.6,5c-7.3,3-12.6-0.2-21.5,1.1
					c-7.9,1.1-15.9,7.6-22.6,3.9c-3.8-8.7,3.9-15,5.5-20.9c-12.2,8.7-24.2,17.6-42.4,20.4c-5.7-3.2-11.3-4.8-16.5-6.1
					c-1.4-2-0.1-3.7-1.1-5.5c-4.9-0.5-8.7,0-12.7,1.6c-4.8-2.4-9.6-4.7-13.2-8.3c-12.3-2-24.2-4.4-27-16c-1.1-1.1-3.3,3.8-5.5,1.7
					c-4.2-3.9,1.2-8.9-2.2-13.8c-5.3,6.5-11.7,11.8-17.1,18.2c2.3,2.4,0.4,8.8,0.6,10.5c1.6,2.1,4.7,2.7,6.1,5
					c6.6,2.7,13.7,4.1,20.9,6.6c6.7,2.3,12.5,6.1,19.3,8.8c14,5.7,31.8,8.6,47.9,10.5c15.1,1.7,32.4,5.8,47.4,4.4
					c7.6-0.7,15.6-4.9,23.1-2.8c-13.1,2.6-26.3,7.3-39.6,4.4c-2.1-0.4-3.9-1.8-6.1-2.2c-1.9-0.3-4,0.2-6.1,0c-2.9-0.3-5.6-2-8.3-2.2
					c-8.8-0.6-16.5-0.4-23.7-1.6c-8.5-1.4-16.7-3-24.2-5c-7.3-1.9-15-6.8-20.4-9.4c-2.4-1.2-5.2-1.1-7.7-2.2
					c-1.6-0.7-2.6-2.3-4.4-2.8c-1.8-0.5-3.8,0.3-5.5,0c-8.4-1.5-15-5.9-21.5-10.5c0.6-2.3,2.8-5.5,1.1-8.3c-3.8,3.5-3,9.7-5,14.9
					c-1.3,3.4-3.8,6.5-5,9.9c-3.2,9.3,4.8,19.7,6.1,30.8c2.1,18.5-0.2,34.7,0.6,50.1c4.1,2.7,6.3,7.3,12.7,7.7c6,5.3,12.5,9,19.8,11
					c1.4,0.4,2.7-0.4,4.4,0c6,1.2,12.5,5,19.8,6.1c10.8,1.5,19.8,0.3,28.1,0c6.8-0.2,13.9,1.7,20.9,2.8c24,3.6,46.9,7.9,67.7-1.1
					c9.4-4.1,18.8-9.2,28.1-12.7c5.3-2,10.3-3.5,15.4-6.1c18.9-9.5,41.4-16.2,62.2-23.1c17.5-5.8,36.4-13.6,58.9-12.7
					c17.2,0.7,33.8,5.8,51.8,7.2c9,0.7,18.4-0.9,27.5-0.5c14.3,0.5,29-0.2,42.4,0c30.7,0.4,54.7,4.1,80.4,0
					c10.7-1.7,18.7-4.3,28.6-7.2c21.3-6.2,45-16.5,60.6-31.9c8.6-8.6,21-19.9,24.8-30.3c3.3-9.1,3.1-25.4,6.1-40.2
					c1-4.9,4.1-11.9,3.9-17.1c-0.3-7.1-12-15-20.9-14.9C673.6,389,676.3,388.3,676.5,390.1z"/>
				<path fill-rule="evenodd" clip-rule="evenodd" fill="#DADFE1" d="M348.9,278.9c-1-2.6,0.9-4.8-1.7-6.1
					c24.6-3,33.9,14.2,47.9,23.7c-10.1-2.4-16.2-13.5-27-17.1c-3.1,1.3-4.7,0.6-8.8,0.6c-4.2,2.2-5.3,7.6-11,8.3
					c-1.3-0.4-0.8-2.5-2.2-2.8c-14.6,3.4-27.6,8.4-38,16C315.8,290.2,335.6,286.4,348.9,278.9z"/>
				<path fill-rule="evenodd" clip-rule="evenodd" fill="#DADFE1" d="M536.7,349.4c1.9-0.6,5.6,1.7,8.8,3.3c3.1,1.6,6,3.3,9.4,5
					c6.6,3.2,13.1,5,20.9,7.2c9.5,2.6,19.2,6.1,28.6,8.8c8.8,2.5,18.2,2.3,24.8,8.3c-14.1-1.4-26.3-8.3-39.1-9.9
					c-3.4-0.4-7,0.5-10.5-0.6c-1.8-0.6-3.4-2.5-5.5-3.3c-11.9-4.6-25.1-9.8-34.7-17.1C538.5,350.4,538.5,349.3,536.7,349.4z"/>
				<path fill-rule="evenodd" clip-rule="evenodd" fill="#AC162C" d="M307,302.5c9.9-4.1,20.6-12.1,34.1-14.3
					c2.6,0.5-1.6,2.5-1.1,4.4c12.1-1.7,16.6-11.3,28.6-11.6c6.9,3.9,15.2,10.7,22,16.5c16.6,7.7,35.9,15.1,52.9,17.1
					c10.8,1.2,19.5-0.1,28.6,1.1c16.5,2.2,31,14.9,44.1,23.1c3.1,2,7,2.7,9.9,4.4c7.8,4.6,14.6,11.2,22.6,16
					c4.2,2.5,9.9,3.8,14.9,6.1c4.7,2.2,9.3,5,13.8,6.6c4.5,1.6,8.6,0.8,13.2,1.7c1.6,0.3,3.2,1.8,5,2.2c3.1,0.7,6.8,0.3,9.9,1.1
					c6.9,1.7,13.6,6.3,20.9,7.2c12.6,1.4,25-1,39.7,1.7c1.6,0.6,2.7,1.9,3.9,2.8c11.5,8.9-4.4,20.5-12.7,26.4
					c-5.4,3.9-10.9,9.5-16.5,11c-6.4,1.8-14-0.9-20.9,0.6c-11.5,2.4-21.1,17.8-35.8,9.4c0.3-3.3,0.3-3.6,0.5-7.2
					c-6.9,1.4-9.4,10.6-17.1,13.8c-3,1.2-7.4,0.8-11.6,1.7c-9.3,1.8-20,4.4-31.9,2.2c-1.5-2.2,0.6-5.5-0.6-7.2
					c-5.1,1-8.7,6.8-17.6,7.2c-5.8,0.2-13.5-0.4-18.2-2.2c0.1-0.6-0.1-1-0.5-1.1c0.2-8,5.7-10.8,7.7-17.1c-4.5,1.4-8.8,5.1-13.2,8.3
					c-4.1,2.9-9,7.5-13.8,8.3c-5,0.8-10.4-2.2-16.5-2.7c-2.4-0.2-5.2,0.2-7.7,0c-14.2-1.1-29.2-7.1-42.4-8.3
					c-12.7-1.1-27.4-0.8-36.3-6.1c-2.5-9.3,4.4-13.5,6.6-19.8c-8.1,2-11.5,13.1-19.3,17.6c-5.9,3.4-12.9,3.5-20.9,4.4
					c-0.8-2.1-2.5-3.4-3.3-5.5c0.9-3.5,3.5-5.3,4.4-8.8c-6.6,0-7.6,10.8-14.9,12.7c-4.1,1-9.3-0.3-13.2,1.1
					c-6.2,2.3-10.4,9.3-18.2,8.3c-1.8-4.9,2.1-7.5,2.8-12.7c-4.4,1.2-7.7,6.1-11,9.4c-3.4,3.4-6.8,6.7-10.5,9.9
					c-7.1,2.7-13.7,7.2-22,9.9c-12.6,4.1-28.4,2.7-36.3,11c-5.8,2.5-12.5-0.1-18.7,0.5c-7.8,0.8-14.8,4.1-20.9,3.9
					c-2.5-14.6,12.1-21.2,18.2-30.8c-4.5-0.9-6.2,4.1-9.4,6.6c-2.5,2-8.3,4.4-13.2,7.7c-8.5,5.8-13.9,9.6-25.3,13.2
					c-8.5,2.7-14.8-0.4-24.2-3.3c-0.2-4.4,5-3.4,5.5-7.2c-5.3-0.7-13,3.1-19.8,2.8c-7.4-0.4-11-7.4-16-9.9
					c-16.2,1.7-26.7-8.7-23.7-20.9c3.5-7.8,12.6-11.9,21.5-16c7.3-3.4,16.7-7.7,24.8-11c4.4-1.8,7.8-4.5,12.1-6.6
					c3.4-1.7,8.2-2.5,12.1-4.4c12.3-5.9,28.6-17.3,43.5-5c15,2.6,25.2-3.2,35.2-7.2c-4,12.5-19.6,18.2-28.1,28.1
					c2.4,3,5.3-1.7,8.8-1.1c-9.4,10.8-25.3,15.1-34.7,25.9c17.7-5.1,35.8-14.5,47.4-27.5c0.8-2.6-2.3-1.4-1.7-3.9
					c5-2.2,9.2-5.1,12.1-9.4c7.7-6.3,19.8-8.1,28.1-13.8c-16.8,3.4-30.3,14.8-43.5,23.7c-0.1,2.2,2,2,3.3,2.8
					c-9.5,11.2-22.6,18.9-38,24.2c-0.4-2.6,3.7-4,6.1-5.5c7.6-4.8,18.2-9.7,23.1-17.1c-3.1-2-5.6,1.4-8.8,1.1
					c7.1-7.5,15.6-11.5,22.6-19.8c5.5-6.6,7.4-11.1,19.8-11.6c3.6-0.1,7.7,0.2,11.6,0.6c23.9,1.9,51.9,6.5,77.1,5.5
					c2.6-0.1,5.1-1.3,7.7-1.1c5.7,0.3,10.7,4.1,16.5,5c4.3,0.6,7.9-0.5,11.6,1.7c5.1-1.4,9.2-2.6,13.8-2.8c3.9-0.2,7.3,1.6,11,1.7
					c2.3,0,4.7-1.2,7.2-1.1c6.4,0.2,12.6,2.3,18.7,2.2c16.3-0.2,28.7-5.9,42.4-4.4c11.8,1.3,24.2,6.5,35.8,9.4
					c6.4,1.6,11.4,2.9,19.3,4.4c8.4,1.6,20,2.3,30.8,1.1c17.1-1.9,33.7-0.9,51.8,0.6c12,0.9,23.6,5.3,38,3.9
					c1.8-1.5,4.1-2.6,4.4-5.5c-1.5-4.5-7.7-1.9-9.9-2.2c-4.6-0.6-10.5-3.8-15.4-4.4c-13.6-1.8-26.1-1.4-41.3-2.2
					c-10-0.5-20.3-3.5-30.3-6.1c-10-2.5-20.4-3.5-29.7-5.5c-9.4-2-18.7-3.7-27.5-6.6c-12.9-4.3-22.3-9.9-38.5-8.3
					c-9.2,0.9-17.1,3.2-25.9,3.3c-11.7,0.2-23.1-2.3-35.8-3.3c-10.5-0.9-21.1,2.5-31.9,1.7c-5.3-0.4-12-1.7-17.6-3.3
					c-9.4-2.6-16.1-3.8-21.5-9.4c-13.3-4.8-31.4-1.4-44.6-6.1c-4.9-4.8-12-8.3-12.7-16c-0.5-6.3,5.2-10.8,8.8-17.1
					c2.6-4.6,4.1-9.7,8.3-13.2c6.7-5.7,15.3-9,22-11.6c6.7-8.3,21.2-11.3,30.3-15.4c11.8,4,26.4,2.5,35.8,9.4
					C336.8,289,313.2,285.4,307,302.5z M303.7,297.6c-13.7,12.9-36.1,17.1-45.7,34.1c7.6-3.7,13-10,20.9-13.8c6.5-3.1,14-5,18.2-9.4
					c0.7-3.6,3.6-4.8,4.4-8.3c1.7-0.3,2.4-1.7,3.9-2.2C304.7,298.1,304.6,297.4,303.7,297.6z M378.1,311.9c2.3-0.2,2.3-2.8,5-2.8
					c3.5,1,6.3,2.9,10.5,3.3c0.5-1,2.2-0.7,1.7-2.8C390.6,312.2,379.4,302.5,378.1,311.9z M337.9,326.2c-5.1,4.4-10.7,7.8-16.5,11.6
					c-3.8,2.5-9.8,3.7-11,8.8c10-6.2,23.1-9.2,28.6-19.8C338.8,326.3,338.5,326.1,337.9,326.2z M376.4,330.1
					c-7.7,6.1-20.8,9.6-25.3,17.1c8-6.5,21.1-7.9,27.5-16C378.5,330.2,377.7,329.9,376.4,330.1z M437.5,338.9
					c1.3,0.3,2.5,0.8,4.4,0.6c-1.2,1.2-0.4,3.6,1.1,3.9c0.1-0.8,1.2-0.6,1.7-1.1c-0.2-1.4-1.8-1.5-1.1-3.9c-2.3-1.5-4.3,0.1-5-2.8
					C438.1,336.6,437.1,337,437.5,338.9z M463.4,345.5c5.7-1.7,8.4-6.3,12.1-9.9C469.5,336.9,466.7,341.4,463.4,345.5z M390.7,347.7
					c2.6-1.3,6.2-1.5,7.2-4.4C395.1,342.4,392,345.4,390.7,347.7z M496.5,358.7c1,0.6,4.6-0.9,6.6-1.1
					C503.1,353.3,497.5,357.4,496.5,358.7z M205.7,416.5c9.1-2.4,12.9-10.1,19.8-14.9c11.5-5.3,20.1-13.7,31.9-18.7
					c-0.1-0.7-0.2-1.3-1.1-1.1c-12.3,2.9-21.4,9.1-33.6,12.1c-4.4,3.1-6.3,7.8-9.4,11.6c-5.8,7-17.1,6.1-20.9,15.4
					C194.8,416.6,200.9,417.8,205.7,416.5z M280,385.1c-7.6,5.8-14.8,12-22,18.2c7.5-4.3,18.2-10.1,24.2-17.6
					C281.5,385.5,281.2,384.9,280,385.1z M341.7,392.3c-13.4,0.1-21.2-2.8-23.7-2.2c-5.2,1.1-7.4,4.3-12.7,6.6
					c-1.8,5.2-7.9,6-10.5,10.5c10.5,1.6,15.6-8.9,22.6-11c8.8-2.7,20.7,1.6,30.3-0.6c3.8-0.8,7.2-2.8,11-4.4
					C353,389,347.5,392.3,341.7,392.3z M490.4,407.2c3,0.3,3.6-2.8,6.6-3.9c2.6-0.9,7.3,0.8,8.3-2.8
					C499.1,399.4,492.1,402.1,490.4,407.2z M441.4,403.3c1.4,6.4-6,3.9-6.1,8.8c3.4-2.1,8.3-2.7,8.3-8.3c0.5-1.5,5.9-2.1,3.3-3.3
					C444.7,401.1,443.3,402.5,441.4,403.3z M455.7,405c1.3,0.2,2.1-0.1,2.7-0.6c0.2-1.3-0.1-2.1-1.1-2.2
					C456.9,403.2,456,403.8,455.7,405z M574.7,411.6c2.8,0.6,4.8-3.4,6.6-5.5C578.1,405.1,575.5,408.4,574.7,411.6z M285.5,408.3
					c-3.6,6.1-10.8,8.6-15.4,13.8c8.2-2.3,13-7.9,18.2-13.2C287.7,408.4,286.8,408.1,285.5,408.3z M245.3,414.3
					c1.3-2.4,4-3.4,5.5-5.5C248.1,409.4,244.3,411.8,245.3,414.3z M207.4,426.4c1,4.9-3.2,4.5-4.4,7.2c6.5-0.1,5.4-7.8,11-8.8
					C212.1,422.1,209.4,425.9,207.4,426.4z M131.9,440.2c-2.1,1.1-4.6,1.5-6.6,2.8c-1.4,0.9-3.1,3.2-4.4,3.9
					c-2.6,1.3-8.7,1.1-9.4,5.5c2.1-0.1,2.1-2.3,4.4-2.2c16.5-3.3,28.1-11.6,38.5-20.9C146.2,431.5,139.2,436.2,131.9,440.2z"/>
				<path fill-rule="evenodd" clip-rule="evenodd" fill="#DADFE1" d="M192.5,420.9c3.9-9.3,15.2-8.5,20.9-15.4
					c3.1-3.8,5-8.4,9.4-11.6c12.2-3,21.3-9.2,33.6-12.1c0.9-0.2,1,0.4,1.1,1.1c-11.8,5-20.4,13.4-31.9,18.7
					c-6.9,4.8-10.7,12.5-19.8,14.9C200.9,417.8,194.8,416.6,192.5,420.9z"/>
			</g>
		</g>
		<path fill="#2E2A25" stroke="#DADFE1" stroke-width="4.7456" d="M503.8,65.4h-20.4H463h-20.4h-20.4h-20.4h-20.4h-20.4h-20.4H320
			h-20.4h-20.4h-20.4h-20.4h-20.4h-20.4v11.3V88v11.3v11.3v11.3v11.3v11.3v11.3v11.3v11.3v11.3v11.3v11.3v11.3v11.3v11.3h20.4h20.4
			h20.4h20.4h20.4H320h20.4l7.2,81.4c4.5,0.6,18.2,0.2,22.7,0.6l11-82h20.4h20.4h20.4H463h20.4h20.4h20.4v-11.3v-11.3v-11.3v-11.3
			v-11.3v-11.3v-11.3v-11.3v-11.3v-11.3v-11.3v-11.3V99.3V88V76.7V65.4H503.8z"/>
	</g>
	<g>
		<g>
		</g>
		<g>
			<path fill="#DADFE1" d="M320.7,105.8c0.5,12.6-1.5,28.9-6,48.8c-4.5,20.4-6.8,32.3-6.7,35.8c0,0.7,0,1.4,0.1,2
				c-2.2,0.5-5.3,0.7-9.1,0.6c-4.7-0.1-7.7-0.1-9.2,0.1c-3.7,0.3-6.5,1.2-8.3,2.5c-0.1-2.3,1.8-13.5,5.8-33.5
				c4.2-20.6,6.3-33.5,6.2-38.8c0-2.2-0.3-3.5-0.8-3.9c-0.5-0.4-1-0.6-1.5-0.6c-2.7,0-7.1,3.7-13.1,10.9c0.1,21.1-2.2,39.6-6.9,55.6
				c-7.7,1.6-14.4,1.9-20.1,1c2.7-17.8,3.9-36.1,3.6-54.9c-0.1-6.4-0.6-10.1-1.4-11.4c-0.8-1.2-2.1-1.8-3.7-1.8
				c-3.9,0.1-7.8,2.9-11.8,8.5c-0.1,1.2,0.2,19.8,0.8,55.8c-7.2-0.8-13.9,0.5-19.8,4c-2.9-11-4.9-25.2-6.1-42.4
				c-0.4-7-1-21.5-1.7-43.5c7.3-1,17-2.7,29.1-5c-0.3,3.2-0.4,6.3-0.2,9.2c0.2,3.7,0.3,6.8,0.2,9.3c5.1-6.9,12.3-12.3,21.6-16
				c2.9-1.2,5.3-1.8,7.3-1.8c4.3-0.1,6.7,2.3,7.3,7.1c0.7,5.1,1.2,10.2,1.5,15.3c3.7-4.1,8-7.8,13.1-11.2c4.8-3.1,8.7-5.1,11.9-5.8
				c6.9-1.5,10.6-2.3,11-2.3C318.2,99.6,320.5,101.7,320.7,105.8z"/>
			<path fill="#DADFE1" d="M367.3,134.5c-0.1-7.1-0.4-12.1-0.8-14.9c-1-6.9-3.2-10.2-6.4-9.9c-5.3,0.5-9.7,10.3-13.2,29.4
				c5.6-3.1,11-4.6,16.3-4.7C364.5,134.3,365.8,134.4,367.3,134.5z M381.2,145c-1,0.1-2.9,0-5.5-0.1c-3.1-0.1-5.5-0.1-7.2-0.1
				c-9,0.1-16.7,2.4-23.1,6.9c0,1.2,0,2.3,0,3.3c0.1,10.4,2.9,15.7,8.2,15.7c3.8,0,6.3-1.3,7.5-3.8c0.9-2.8,1.9-5.5,2.8-8.3
				c4.7,5,9.7,9.1,14.8,12.3c-1.2,2.3-2.4,4.6-3.6,7c-2,3.1-4.6,5.5-7.9,7.4c-4.3,2.4-10,3.8-17,4.3c-7.8,0.5-14.3-3.3-19.5-11.4
				c-4.2-6.6-6.3-12.9-6.3-18.9c0-11.2,2.3-22.4,6.9-33.6c7-17.1,17.7-25.7,32-25.9c7-0.1,12.2,3.4,15.7,10.5
				c2.7,5.4,4,12.3,4.2,20.6C383.5,139.1,382.8,143.8,381.2,145z"/>
			<path fill="#DADFE1" d="M425.4,137.5c-4.7,1.2-8.7,3.8-12.1,7.7c-3.9,4.4-6.1,9.8-6.6,15.9c-0.2,3.4,0.7,6,2.9,8
				c1.9,1.6,4,2.5,6.5,2.6c3.6,0.1,6.5-3.6,8.5-11C424.8,151.4,425,143.6,425.4,137.5z M446.7,188.7c-7.8,0.1-15,1.2-21.3,3.2
				c-0.1-3.1-0.3-6.9-0.4-11.2c-7.7,6.4-13.7,9.6-17.9,9.6c-7.5,0.1-13.1-3-16.9-9.5c-2.6-4.4-3.9-8.9-4-13.7
				c-0.1-8.5,1.6-15.1,5.2-19.6c2.3-2.9,6.7-6.2,13.4-9.8c5.7-3.1,9.4-5.1,11-6.2c5.1-3.3,9.1-6.9,12.2-10.8
				c0.5-2.9,0.8-5.3,0.7-7.2c-0.1-4.3-1.4-6.5-4.2-6.5c-2.8-0.1-5.5,2-8.2,6.1c-2.4,3.8-4,7.8-4.8,12.3c-6.8-3-13.5-5.2-20-6.5
				c3-7.4,7.8-13.2,14.3-17.3c4.8-3,9.2-4.6,13.1-4.6c3.8-0.1,8.4,1.5,13.9,4.7c6.4,3.8,10.2,8.1,11.4,12.9c2,8.4,2.6,20.7,1.9,36.7
				C445.4,168.8,445.6,181.3,446.7,188.7z"/>
			<path fill="#DADFE1" d="M508.1,166.3c-0.6,11.5-3.9,20.9-9.9,28.2c-4.8,5.9-9.5,8.8-14.1,8.9c-4.8,0.1-9.4-2.1-13.9-6.6
				c-4.5-4.5-7.2-9.6-8-15.3c-0.4-2.7-0.6-6.3-0.7-10.7c-0.1-10,0.5-23.5,1.9-40.4c-3.7,1.3-7.1,2.4-10,3.3v-9.6
				c3.5-1.7,7.2-3.3,11.1-4.9c1.6-16.4,3-28.3,4.4-35.7c11.3-1.6,20.6-4.1,27.8-7.6c-2.7,7.7-5.9,19.5-9.7,35.4
				c6.5-1.8,12.3-3,17.2-3.4l0.1,7.2c-1.8,0.6-8.4,3.2-20,7.5c-5.2,23.5-7.7,39.9-7.6,49.3c0,2.1,0.2,3.8,0.5,5.1
				c1.1,4.1,2.9,6.1,5.4,6c2.7,0,4.5-1.4,5.4-4.1c0.6-1.6,0.9-4.1,1-7.4c0.1-3.8,0.3-6.2,0.6-7.4c1.6-0.3,3.2-0.5,5-0.5
				C500.2,163.6,504.6,164.5,508.1,166.3z"/>
			<path fill="#DADFE1" d="M265,203.2c-1.4,0.3-2.8,1-4.1,2c0-0.2,0-0.7,0.1-1.4c0.1-0.7,0.1-1.3,0.1-1.7c0-0.8-0.2-1.3-0.5-1.3
				c-0.1,0-0.2,0-0.3,0.1c-0.8,0.4-1.3,0.9-1.5,1.7c-0.3,1.1-0.7,2.3-1,3.4c-0.3,0.9-0.5,2.7-0.6,5.4v0.5c1.2-0.2,2.2-0.5,3.1-0.8
				v1.6c-1,0.5-2,0.9-3.1,1.2c0,1.4,0,3.2,0,5.3c0,2.6,0,3.9,0,4c-0.3,0-0.9,0.1-1.7,0.3c-0.8,0.2-1.5,0.5-2.1,0.8
				c0-5.7,0-8.9,0-9.5c-1,0.3-2,0.8-3,1.3v-1.6c0.9-0.9,1.9-1.5,3.1-1.8c0.1-6.7,0.6-10.5,1.2-11.6c0.3-0.5,1.1-1.1,2.3-1.9
				c1.2-0.8,2.2-1.2,2.8-1.3c0.2,0,0.6-0.1,1.3-0.2c0.6-0.1,1-0.2,1.3-0.2c0.5,0,0.9,0.1,1.2,0.4c0.4,0.4,0.7,1.1,0.9,2.1
				C264.7,201,264.8,202.1,265,203.2z"/>
			<path fill="#DADFE1" d="M271.4,212.6c0-2.8-0.2-4.3-0.7-4.3c0,0-0.1,0-0.1,0c-2.2,0.7-3.3,3.6-3.3,8.6c0,2.5,0.3,3.8,1,3.8
				c0.1,0,0.2,0,0.3-0.1c0.9-0.5,1.6-1.7,2.2-3.7C271.2,215.3,271.4,213.9,271.4,212.6z M275.4,213.2c0.1,2.7-0.7,5.1-2.2,7.4
				c-1.6,2.3-3.5,3.5-5.7,3.5c-1.6,0-2.8-1-3.5-2.9c-0.5-1.3-0.8-2.6-0.7-4c0-2,0.6-4.1,1.7-6.5c1.5-3.3,3.6-4.9,6.1-4.9
				c1.8,0,3,0.8,3.6,2.4C275.1,209.2,275.3,210.9,275.4,213.2z"/>
			<path fill="#DADFE1" d="M290.8,210c-0.1,0-0.2,0-0.3,0c-1.2,0-2.6,0.6-4.5,1.9c0.4-1,0.6-1.9,0.6-2.6c0-1-0.3-1.6-0.9-1.6
				c-0.9,0-1.7,1-2.4,2.9c0.1,1.3,0.3,3.4,0.7,6.3c0.3,2.5,0.5,4.5,0.6,6.2c-1.1-0.1-2.8,0.4-5.1,1.3c0.1-0.9,0.2-2.1,0.2-3.5
				c0-1.1,0-3-0.2-5.6c-0.1-2.6-0.2-4.5-0.2-5.7c0-1.4,0-2.5,0.1-3.5c0.9-0.7,2.1-1.2,3.8-1.3c-0.1,0.8-0.1,1.6-0.1,2.5
				c1.9-1.7,3.6-2.5,5.1-2.5c0.2,0,0.3,0,0.5,0c0.6,0.1,1.1,0.8,1.3,2.1C290.4,207.8,290.6,208.9,290.8,210z"/>
			<path fill="#DADFE1" d="M313,208.3c-1.3,0.8-2.2,1.6-2.8,2.4c0-0.3-0.3-0.8-0.8-1.4c-0.5-0.6-1-1-1.4-1c-1.2,0-2.1,1-2.7,3
				c-0.4,1.4-0.7,3-0.7,4.7c0,2.8,0.8,4.3,2.4,4.5c0.7,0.1,1.3-0.3,1.9-1.2c0.5-0.7,0.8-1.5,1-2.4c0.5,1.3,1.3,2.5,2.5,3.5
				c-0.5,1.1-1.3,2-2.3,2.8c-1.1,0.8-2.2,1.2-3.3,1.2c-2,0-3.7-1-4.9-3c-1-1.6-1.5-3.3-1.5-5.1c0-2.3,0.6-4.7,1.9-7.2
				c1.5-3,3.3-4.4,5.5-4.4C309.6,204.6,311.3,205.8,313,208.3z"/>
			<path fill="#DADFE1" d="M324,212.6c-1,0.2-1.8,0.8-2.6,1.6c-0.8,0.9-1.3,2-1.4,3.3c-0.1,0.7,0.1,1.3,0.6,1.7
				c0.4,0.3,0.8,0.5,1.4,0.6c0.8,0,1.4-0.7,1.8-2.3C323.8,215.5,323.9,213.9,324,212.6z M328.3,223.4c-1.6,0-3.1,0.2-4.5,0.6
				c0-0.7,0-1.4,0-2.3c-1.6,1.3-2.9,2-3.8,2c-1.6,0-2.7-0.7-3.5-2c-0.5-0.9-0.8-1.9-0.8-2.9c0-1.8,0.4-3.2,1.1-4.1
				c0.5-0.6,1.4-1.3,2.8-2c1.2-0.6,2-1.1,2.3-1.3c1.1-0.7,1.9-1.4,2.6-2.2c0.1-0.6,0.2-1.1,0.2-1.5c0-0.9-0.3-1.4-0.9-1.4
				c-0.6,0-1.2,0.4-1.7,1.3c-0.5,0.8-0.9,1.7-1,2.6c-1.4-0.7-2.8-1.1-4.2-1.4c0.7-1.6,1.7-2.8,3.1-3.6c1-0.6,1.9-0.9,2.7-0.9
				c0.8,0,1.7,0.3,2.9,1c1.3,0.8,2.1,1.7,2.3,2.7c0.4,1.8,0.5,4.3,0.3,7.7C328.1,219.3,328.1,221.9,328.3,223.4z"/>
			<path fill="#DADFE1" d="M344.2,218.6c-0.2,2.6-0.9,4.6-2.3,6.2c-1.1,1.3-2.1,1.9-3.1,1.9c-1.1,0-2.1-0.5-3.1-1.5
				c-1-1-1.6-2.1-1.7-3.4c-0.1-0.6-0.1-1.4-0.1-2.4c0-2.2,0.2-5.2,0.5-9c-0.8,0.3-1.6,0.5-2.2,0.7l0-2.1c0.8-0.4,1.6-0.7,2.5-1.1
				c0.4-3.6,0.8-6.3,1.1-7.9c2.5-0.3,4.6-0.8,6.2-1.6c-0.6,1.7-1.4,4.3-2.3,7.8c1.5-0.4,2.7-0.6,3.8-0.7v1.6
				c-0.4,0.1-1.9,0.7-4.4,1.6c-1.2,5.2-1.8,8.8-1.8,10.9c0,0.5,0,0.8,0.1,1.1c0.2,0.9,0.6,1.4,1.2,1.4c0.6,0,1-0.3,1.2-0.9
				c0.1-0.4,0.2-0.9,0.2-1.6c0-0.8,0.1-1.4,0.1-1.6c0.3-0.1,0.7-0.1,1.1-0.1C342.5,218,343.5,218.2,344.2,218.6z"/>
			<path fill="#DADFE1" d="M359.4,210.8c-1.2,0.3-2.4,0.7-3.7,1.2c0-0.1,0-0.3,0-0.5c0-0.9-0.1-1.7-0.3-2.3
				c-0.3-0.8-0.8-1.2-1.4-1.2c-0.6,0.1-0.9,0.9-0.9,2.4c0,0.4,0.4,1.2,1.2,2.4c1.2,1.8,1.9,2.9,2.2,3.4c0.8,1.4,1.1,2.5,1.1,3.4
				c-0.1,1.4-0.8,2.7-2.2,3.8c-1.1,0.9-2.1,1.4-3,1.4c-2.3,0-3.9-1.7-4.9-5.1c-0.1-0.5,1-1.3,3.3-2.5c0.5,1.9,1.3,2.9,2.4,3
				c0.4,0,0.6,0,0.7-0.2c0-0.1,0-0.4,0-0.8c0-0.4-0.4-1.1-1.2-2.1c-1.1-1.4-1.8-2.4-2.1-3c-0.8-1.3-1.1-2.4-1.2-3.5
				c0-1.5,0.6-2.8,2-3.9c1.3-1.1,2.7-1.6,4.2-1.6c0.8,0,1.6,0.6,2.5,1.8C358.9,208.2,359.4,209.5,359.4,210.8z"/>
			<path fill="#DADFE1" d="M381.9,213.3c-1,1.9-2.7,3-5.1,3.4c-0.3,0.3-0.4,0.7-0.4,1c0,0.7,0.5,1.5,1.5,2.2c-0.3,1-1,1.6-2.1,1.9
				c-1.3-1.7-1.9-3.1-1.9-4c0-0.3,0.1-0.7,0.3-0.9c-1.1-0.1-2-0.5-2.6-1.1c-0.6-0.6-0.9-1.4-0.9-2.5c0-1.5,0.2-2.6,0.6-3.3
				c0.3-0.6,1-1.2,2.1-2c-1.3-0.7-1.9-1.5-1.9-2.6c0.1-1.9,1.5-3.2,4.2-3.9c-0.3-0.5-0.4-1.2-0.4-2c0-0.5,0.1-0.9,0.2-1.3
				c0.7,0.5,1.6,0.7,2.7,0.6c-0.3,0.3-0.4,0.7-0.4,1.2c0,0.6,0.2,1,0.6,1.5c0.7,0.2,1.3,0.6,1.9,1.1c0.6,0.6,0.9,1.3,0.8,2
				c-1.4-0.1-2.6,0-3.5,0.5c-0.1-0.4-0.2-0.8-0.5-1.1c-0.3-0.3-0.6-0.4-0.9-0.4c-1.3,0-1.9,0.5-1.9,1.3c0,0.2,0,0.4,0.1,0.7
				c0.1,0.4,0.6,0.7,1.5,1c1,0.4,1.6,0.6,1.7,0.8c0.2,0.7,0.2,1.2,0.2,1.5c-0.2,0-0.4,0-0.5,0c-1.1,0-1.9,0.3-2.3,0.9
				c-0.4,0.5-0.6,1.3-0.7,2.5c0,0.3,0.1,0.8,0.4,1.3c0.3,0.6,0.6,0.8,1,0.9c1.2,0,2-0.7,2.4-2.3c0.6,0,1.2,0.1,1.9,0.1
				C380.9,212.5,381.5,212.8,381.9,213.3z"/>
			<path fill="#DADFE1" d="M399.1,210.8c-0.7-1.2-1.3-1.8-1.9-1.8c-0.3,0-0.6,0.1-0.9,0.4c-0.3,0.2-0.5,1.1-0.8,2.7
				c-0.3,1.6-0.5,3.2-0.5,4.6c0,2.4,0.5,3.6,1.5,3.5c0.5,0,1.4-1,2.5-3c-0.1-0.1-0.1-0.4-0.1-0.8c0-0.4,0-1.2,0.2-2.4
				c0.1-1.2,0.2-2,0.2-2.4C399.2,211.2,399.2,210.9,399.1,210.8z M407.5,197.7c-1,1.8-1.9,4.8-2.7,9.1c-0.8,4.5-1.2,9-1.2,13.6
				c0,1.2,0,2.3,0.1,3.4c-0.4,0.1-1.1,0.2-2.2,0.2c-1.1,0-1.9,0-2.2-0.1c0.2-0.4,0.4-1.8,0.6-4.1c-1.4,2.8-2.9,4.1-4.5,4
				c-2.7-0.2-4.1-2.8-4.1-7.9c0-0.7,0-1.5,0.1-2.5c0.1-2,0.5-3.7,1.2-5.2c0.9-2,2.2-3,3.7-2.9c1.6,0.1,3,1.5,4.2,4.2
				c0.1-1.2,0.4-2.9,0.8-5.3c0.3-1.8,0.5-3.3,0.5-4.3c0-0.9-0.1-1.7-0.3-2.5C403.3,197.9,405.3,197.9,407.5,197.7z"/>
			<path fill="#DADFE1" d="M416.2,212.6c0-2.8-0.2-4.3-0.7-4.3c0,0-0.1,0-0.1,0c-2.2,0.7-3.3,3.6-3.3,8.6c0,2.5,0.3,3.8,1,3.8
				c0.1,0,0.2,0,0.2-0.1c0.9-0.5,1.6-1.7,2.2-3.7C416,215.3,416.2,213.9,416.2,212.6z M420.1,213.2c0.1,2.7-0.7,5.1-2.2,7.4
				c-1.6,2.3-3.5,3.5-5.7,3.5c-1.6,0-2.8-1-3.5-2.9c-0.5-1.3-0.8-2.6-0.7-4c0-2,0.6-4.1,1.7-6.5c1.5-3.3,3.6-4.9,6.1-4.9
				c1.8,0,3,0.8,3.6,2.4C419.8,209.2,420,210.9,420.1,213.2z"/>
			<path fill="#DADFE1" d="M432.1,208.1c-0.5,0-1.2,0.5-2.1,1.4c-0.9,0.9-1.4,1.7-1.6,2.3c-0.1,0.4-0.1,0.9-0.1,1.4
				c0,1.4,0.2,2,0.6,2c0.1,0,0.2-0.1,0.3-0.2c2.3-2.6,3.5-4.6,3.5-5.8C432.7,208.4,432.4,208.1,432.1,208.1z M432,225.1
				c0.3-0.8,0.4-1.4,0.4-1.9c0-0.5-0.1-1.1-0.4-1.6c-0.1-0.3-0.3-0.4-0.6-0.5c-0.2,0-0.5-0.1-0.8,0c-0.5,0.1-0.8,0.1-0.8,0.1
				c-0.9,0-1.8,0.7-2.7,2c-0.8,1.2-1.2,2.4-1.2,3.5c0,1,0.4,1.5,1.2,1.5c0.1,0,0.3,0,0.4,0c1.1-0.2,1.9-0.4,2.4-0.6
				C430.9,226.9,431.6,226.1,432,225.1z M440.9,206.2c-0.9,0.5-1.7,1.4-2.4,2.5c-0.1-0.4-0.3-0.8-0.4-1.2c-0.1-0.4-0.3-0.7-0.6-1
				c-0.5,0.1-0.9,0.5-1.3,1.1c0.7,0.6,1,1.2,1,1.8c0,0.1,0,0.2,0,0.3c-0.2,1-0.4,1.7-0.6,2.2c-0.3,0.6-0.9,1.3-1.7,2
				c0.1,0.5,0.3,0.9,0.7,1.3c0.4,0.4,0.6,0.7,0.6,1c0,0.2-0.1,0.5-0.5,0.9c-0.5,0.5-0.9,1-1,1.7c0.9,0.2,1.7,0.7,2.4,1.5
				c0.8,0.8,1.2,1.7,1.2,2.4c0,0.8-0.3,1.6-1,2.5c-0.6,0.9-1.4,1.6-2.3,2.2c-2.3,1.4-4.6,2.1-6.9,2.1c-0.4,0-0.8,0-1.2-0.1
				c-3.5-0.4-5.4-1.6-5.8-3.8c0-0.2-0.1-0.4-0.1-0.6c0-1.9,1.2-3.4,3.5-4.5c2.5-1.2,5.2-1.8,8-1.8c0.1-0.2,0.3-0.6,0.7-1.2
				c0.3-0.4,0.4-0.7,0.4-0.9c0-0.4-0.4-0.7-1.1-1c-1.2,0.7-2.6,1.1-4.1,1.1c-1.4,0-2.4-0.2-3.1-0.7c-0.8-0.5-1.1-1.4-1.1-2.7
				c0-1.7,1.1-3.3,3.2-5c2-1.5,3.7-2.3,5.1-2.3c1,0,2.1,0.5,3.4,1.3c0.6-1,1.1-1.7,1.5-2.2c0.5-0.5,1-0.7,1.5-0.7c0.1,0,0.2,0,0.2,0
				C439.6,204.5,440.3,205.2,440.9,206.2z"/>
			<path fill="#DADFE1" d="M453.4,210.8c-1.2,0.3-2.4,0.7-3.7,1.2c0-0.1,0-0.3,0-0.5c0-0.9-0.1-1.7-0.3-2.3
				c-0.3-0.8-0.8-1.2-1.4-1.2c-0.6,0.1-0.9,0.9-0.9,2.4c0,0.4,0.4,1.2,1.2,2.4c1.2,1.8,2,2.9,2.2,3.4c0.8,1.4,1.2,2.5,1.1,3.4
				c-0.1,1.4-0.8,2.7-2.2,3.8c-1.1,0.9-2.1,1.4-3,1.4c-2.3,0-3.9-1.7-4.9-5.1c-0.1-0.5,1-1.3,3.3-2.5c0.5,1.9,1.3,2.9,2.4,3
				c0.4,0,0.6,0,0.7-0.2c0-0.1,0-0.4,0-0.8c0-0.4-0.4-1.1-1.2-2.1c-1.1-1.4-1.8-2.4-2.1-3c-0.8-1.3-1.1-2.4-1.2-3.5
				c0-1.5,0.7-2.8,2-3.9c1.3-1.1,2.7-1.6,4.2-1.6c0.8,0,1.6,0.6,2.5,1.8C452.8,208.2,453.3,209.5,453.4,210.8z"/>
		</g>
	</g>
</g>
</svg>
